<?xml version="1.0" encoding="ISO-8859-1"?>
<svg height="10cm" id="svg-root" preserveAspectRatio="xMidYMid meet" viewBox="27 27 3745 1340" width="165.09999999999997mm" xmlns="http://www.w3.org/2000/svg" xmlns:java="http://xml.apache.org/xslt/java" xmlns:xlink="http://www.w3.org/1999/xlink"><title>GoalModel</title><style type="text/css">line {stroke: #000000; stroke-width: 0.75;}</style><style type="text/css">text {  
        font-family:Arial, Helvetica, Geneva, sans serif;
        font-size:10;
        text-anchor:middle;
        fill:black;
        font-weight:bold;
        stroke-width:5;
      }</style><style media="print" type="text/css">.background {fill:#FFFFFF;}</style><style media="screen" type="text/css">.background {fill:#3384ad;}</style><radialGradient cx=".5" cy=".5" fx=".5" fy=".5" gradientUnits="objectBoundingBox" id="focusserGradient" r=".5"><stop offset="0.0225" style="stop-color:#FFFFFF"/><stop offset="0.0794" style="stop-color:#FBFEF7"/><stop offset="0.1685" style="stop-color:#F1FBE1"/><stop offset="0.2784" style="stop-color:#E1F5BC"/><stop offset="0.4038" style="stop-color:#CAEE8B"/><stop offset="0.4551" style="stop-color:#C0EB74"/><stop offset="1" style="stop-color:#006699"/></radialGradient><defs><marker id="ArrowControlLine" markerHeight="30" markerUnits="userSpaceOnUse" markerWidth="30" orient="auto" style="stroke: black; stroke-width: 2;fill: rgb(0, 0, 0);" viewBox="-40 -25 80 50"><path d="M 0 0 L -30 15 L -30 -15 z"/></marker><marker id="ArrowObstructionLine" markerHeight="60" markerUnits="userSpaceOnUse" markerWidth="60" orient="auto" style="stroke: black; stroke-width: 2.5;fill: rgb(251, 157, 128);" viewBox="-80 -50 160 100"><path d="M -50 15 L -50 -15 L -49 -15 L -49 15 M 0 0 L -30 15 L -23 0 L -30 -15 L 0 0 z"/></marker><marker id="ArrowDocumentationLine" markerHeight="30" markerUnits="userSpaceOnUse" markerWidth="30" orient="auto" style="stroke: black; stroke-width: 2;fill: rgb(0, 0, 0);" viewBox="-40 -25 80 50"><path d="M 0 0 L -30 15 L -30 -15 z"/></marker><marker class="background" id="ArrowIsALine" markerHeight="30" markerUnits="userSpaceOnUse" markerWidth="30" orient="auto" style="stroke: black; stroke-width: 2.5;" viewBox="-40 -25 80 50"><path d="M 0 0 L -30 15 L -30 -15 z" style="fill:white"/><path class="background" d="M 0 0 L -30 15 L -30 -15 z" id="background_ARROW_ISA" style="visibility:hidden"/></marker><marker id="ArrowPerformanceLine" markerHeight="30" markerUnits="userSpaceOnUse" markerWidth="30" orient="auto" style="stroke: black; stroke-width: 2;fill: rgb(0, 0, 0);" viewBox="-40 -25 80 50"><path d="M 0 0 L -30 15 L -30 -15 z"/></marker><marker id="ArrowMonitoringAgentLineUseCaseViewType" markerHeight="30" markerUnits="userSpaceOnUse" markerWidth="30" orient="auto" style="stroke: black; stroke-width: 2;fill: rgb(0, 0, 0);" viewBox="-40 -25 80 50"><path d="M 0 0 L -30 15 L -30 -15 z"/></marker><marker id="ArrowInputLine" markerHeight="30" markerUnits="userSpaceOnUse" markerWidth="30" orient="auto" style="stroke: black; stroke-width: 2;fill: rgb(0, 0, 0);" viewBox="-40 -25 80 50"><path d="M 0 0 L -30 15 L -30 -15 z"/></marker><marker id="ArrowConcernsLine" markerHeight="30" markerUnits="userSpaceOnUse" markerWidth="30" orient="auto" style="stroke: black; stroke-width: 2;fill: rgb(0, 0, 0);" viewBox="-40 -25 80 50"><path d="M 0 0 L -30 15 L -30 -15 z"/></marker><marker id="ArrowCauseLine" markerHeight="30" markerUnits="userSpaceOnUse" markerWidth="30" orient="auto" style="stroke: black; stroke-width: 2;fill: rgb(0, 0, 0);" viewBox="-40 -25 80 50"><path d="M 0 0 L -30 15 L -30 -15 z"/></marker><marker id="ArrowConflictLine" markerUnits="userSpaceOnUse" orient="auto" style="stroke: black; stroke-width: 2;fill: rgb(255, 0, 0);"/><marker id="ArrowMonitoringLine" markerHeight="30" markerUnits="userSpaceOnUse" markerWidth="30" orient="auto" style="stroke: black; stroke-width: 2;fill: rgb(0, 0, 0);" viewBox="-40 -25 80 50"><path d="M 0 0 L -30 15 L -30 -15 z"/></marker><marker id="ArrowIncludeLineUseCaseViewType" markerHeight="30" markerUnits="userSpaceOnUse" markerWidth="30" orient="auto" style="stroke: black; stroke-width: 2;fill: rgb(0, 0, 0);" viewBox="-40 -25 80 50"><path d="M 0 0 L -30 15 L -30 -15 z"/></marker><marker id="ArrowOutputLine" markerHeight="30" markerUnits="userSpaceOnUse" markerWidth="30" orient="auto" style="stroke: black; stroke-width: 2;fill: rgb(0, 0, 0);" viewBox="-40 -25 80 50"><path d="M 0 0 L -30 15 L -30 -15 z"/></marker><marker id="ArrowControlOperationLineUseCaseViewType" markerHeight="30" markerUnits="userSpaceOnUse" markerWidth="30" orient="auto" style="stroke: black; stroke-width: 2;fill: rgb(0, 0, 0);" viewBox="-40 -25 80 50"><path d="M 0 0 L -30 15 L -30 -15 z"/></marker><marker id="ArrowResolutionLine" markerHeight="60" markerUnits="userSpaceOnUse" markerWidth="60" orient="auto" style="stroke: black; stroke-width: 2.5;fill: rgb(153, 255, 153);" viewBox="-80 -50 160 100"><path d="M -50 15 L -50 -15 L -49 -15 L -49 15 M 0 0 L -30 15 L -23 0 L -30 -15 L 0 0 z"/></marker><marker id="ArrowConflictLine" markerUnits="userSpaceOnUse" orient="auto" style="stroke: black; stroke-width: 2;fill: rgb(255, 0, 0);"/><marker id="ArrowRefinementDefaultAndOrRepresentation" markerHeight="30" markerUnits="userSpaceOnUse" markerWidth="30" orient="auto" style="stroke: black; stroke-width: 2;fill: rgb(246, 222, 63);" viewBox="-40 -25 80 50"><path d="M 0 0 L -30 15 L -23 0 L -30 -15 z"/></marker><marker id="ArrowOperationalizationDefaultAndOrRepresentation" markerHeight="30" markerUnits="userSpaceOnUse" markerWidth="30" orient="auto" style="stroke: black; stroke-width: 2;fill: rgb(102, 153, 255);" viewBox="-40 -25 80 50"><path d="M 0 0 L -30 15 L -23 0 L -30 -15 z"/></marker><marker id="ArrowAssignmentDefaultAndOrRepresentation" markerHeight="30" markerUnits="userSpaceOnUse" markerWidth="30" orient="auto" style="stroke: black; stroke-width: 2;fill: rgb(255, 163, 195);" viewBox="-40 -25 80 50"><path d="M 0 0 L -30 15 L -23 0 L -30 -15 z"/></marker><marker id="ArrowO_RefinementDefaultAndOrRepresentation" markerHeight="30" markerUnits="userSpaceOnUse" markerWidth="30" orient="auto" style="stroke: black; stroke-width: 2;fill: rgb(251, 157, 128);" viewBox="-40 -25 80 50"><path d="M 0 0 L -30 15 L -23 0 L -30 -15 z"/></marker><marker id="ArrowResponsibilityDefaultAndOrRepresentation" markerHeight="30" markerUnits="userSpaceOnUse" markerWidth="30" orient="auto" style="stroke: black; stroke-width: 2;fill: rgb(204, 0, 0);" viewBox="-40 -25 80 50"><path d="M 0 0 L -30 15 L -23 0 L -30 -15 z"/></marker><marker id="SignStopLine" markerHeight="40" markerUnits="userSpaceOnUse" markerWidth="40" orient="auto" style="fill:#FF0033; stroke:white; stroke-width:2;" viewBox="-50 -50 100 100"><path d="M 20 0 L 10 15 L -10 15 L -20 0 L -10 -15 L 10 -15 z"/><text style="font-size:11; fill:white; stroke-width:0.1;" x="0" y="4">STOP</text></marker><marker id="SignConflictLine" markerHeight="60" markerUnits="userSpaceOnUse" markerWidth="30" orient="auto" style="fill:#FF0000; stroke:black; stroke-width:2;" viewBox="-45 -60 90 120"><path d="M 9 -38.7 L -5.3 -2.7 L 16.7 -8.3 L -15.6 38.7 L 1.7 1.7 L -20 7.3 z"/></marker><marker id="ArrowAggregation" markerHeight="60" markerWidth="60" orient="auto" viewBox="-80 -50 160 100"><path d="M 0 0 L 30 15 L 60 0 L 30 -15 z" style="stroke: black; fill:white; stroke-width: 2.5;"/><path class="background" d="M 0 0 L 30 15 L 60 0 L 30 -15 z" id="background_ARROW_AGGREGATION" style="visibility:hidden; stroke: black; stroke-width: 2.5;"/></marker><marker id="ArrowComposition" markerHeight="60" markerWidth="60" orient="auto" viewBox="-80 -50 160 100"><path d="M 0 0 L 30 15 L 60 0 L 30 -15 z"/></marker><marker id="ArrowAssociationDirected" markerHeight="30" markerWidth="30" orient="auto" style="stroke : black; fill: none; stroke-width: 2.5;" viewBox="-40 -25 80 50"><path d="M -30 15 L 0 0 L -30 -15"/></marker><g id="IssueMark" transform="scale(0.45, 0.45)"><g style="fill-rule:nonzero;clip-rule:nonzero;stroke:#000000;stroke-miterlimit:4;"><g><radialGradient cx="5.4365" cy="5.127" fx="5.4365" fy="5.127" gradientUnits="userSpaceOnUse" id="aigrd1" r="5.2803"><stop offset="0" style="stop-color:#FFFFFF"/><stop offset="1" style="stop-color:#99CCCC"/></radialGradient><path d="M15.1055,7.5532c0,4.1714-3.3809,7.5532-7.5527,7.5532S0,11.7246,0,7.5532S3.3809,0,7.5527,0s7.5527,3.3818,7.5527,7.5532z" style="fill:url(#aigrd1);stroke:none;"/></g></g><g style="fill-rule:nonzero;clip-rule:nonzero;stroke:#000000;stroke-miterlimit:4;"><path d="M7.0908,9.2915C7.0742,8.9873,7.0586,8.7632,7.0586,8.5874c0-1.4082,1.2002-1.9199,1.2002-3.9521c0-0.6719-0.1279-2.0957-1.376-2.0957c-0.1445,0-0.9443,0.0479-0.9443,0.6396c0,0.48,0.5918,0.4961,0.5918,1.2803          c0,0.832-0.6563,1.0239-0.9756,1.0239c-0.8164,0-1.1201-0.6719-1.1201-1.2319c0-0.6563,0.4795-2.2881,3.1035-2.2881c0.4961,0,3.1045,0.1763,3.1045,2.7202c0,1.0239-0.6563,1.792-1.5039,2.3198C8.3389,7.4995,7.9229,7.7393,7.7305,8.1392          c-0.1279,0.2563-0.1602,0.624-0.1602,1.1523H7.0908z M7.3467,10.4912c0.7354,0,1.3438,0.624,1.3438,1.3604c0,0.7676-0.6084,1.3438-1.3438,1.3438c-0.7686,0-1.3604-0.5918-1.3604-1.3438c0-0.7202,0.5918-1.3604,1.3604-1.3604z" style="stroke:none;"/></g></g><g id="InfoMark" transform="scale(0.45, 0.45)"><g style="fill-rule:nonzero;clip-rule:nonzero;stroke:#000000;stroke-miterlimit:4"><g><radialGradient cx="5.4365" cy="7.0996" fx="5.4365" fy="7.0996" gradientUnits="userSpaceOnUse" id="aigrd1" r="5.2803"><stop offset="0" style="stop-color:#FFFFFF"/><stop offset="1" style="stop-color:#99CCCC"/></radialGradient><path d="M15.1055,9.5259c0,4.1714-3.3809,7.5532-7.5527,7.5532S0,13.6973,0,9.5259s3.3809-7.5532,7.5527-7.5532s7.5527,3.3818,7.5527,7.5532z" style="fill:url(#aigrd1);stroke:none;"/></g><path d="M9.8125,14.4556H5.9883v-0.3838c0.5762-0.144,0.8477-0.1924,0.8477-0.9604V8.4077c0-0.7202-0.2393-0.832-0.8477-0.9438V7.0796h3.0723v6.0801c0,0.4961,0.1279,0.8481,0.752,0.9121v0.3838z M7.9404,3.3999          c0.6875,0,1.2324,0.5596,1.2324,1.2476c0,0.7041-0.5449,1.2324-1.2324,1.2324c-0.7363,0-1.248-0.5444-1.248-1.2324c0-0.6719,0.5283-1.2476,1.248-1.2476z" style="stroke:none;"/></g><g style="display:none;fill-rule:nonzero;clip-rule:nonzero;stroke:#000000;stroke-miterlimit:4;"><text style="stroke:none;" transform="matrix(1 0 0 1 3.5225 14.96)"><tspan style="stroke:none; font-family:'Times-Bold; serif'; font-size:16;" x="0" y="0">?</tspan></text></g></g></defs><rect class="background" height="10000" id="svgBackground" style="visibility:hidden;" width="10000" x="-5000" y="-5000"/><g id="1222872673472:394"><g id="1222872673472:6" xc="2004" xlink-href="a" yc="257"><g transform="translate(1899, 233)"><path d="M 21 0 L 209 0 L 189 47 L 0 47 z" style="fill: rgb(215, 230, 238);stroke-width: 1;stroke: black;"/></g><text x="2004" y="232.5"><tspan dy="14" text-anchor="middle" x="2004">Achieve</tspan><tspan dy="14" text-anchor="middle" x="2004">[AppropriateMedicalCareGivenWh</tspan><tspan dy="14" text-anchor="middle" x="2004">enCallReceived]</tspan></text></g><g id="1222872673472:361" xc="481.5" xlink-href="a" yc="460"><g transform="translate(378, 436)"><path d="M 20 0 L 206 0 L 186 47 L 0 47 z" style="fill: rgb(215, 230, 238);stroke-width: 1;stroke: black;"/></g><text x="481.5" y="435.5"><tspan dy="14" text-anchor="middle" x="481.5">Achieve</tspan><tspan dy="14" text-anchor="middle" x="481.5">[IncidentInfoKnownWhenCallRece</tspan><tspan dy="14" text-anchor="middle" x="481.5">ived]</tspan></text></g><g id="1222872673472:7"><polyline fill="none" points="577,452 2006,340 " style="stroke: black;"/></g><g id="1222872673472:356" xc="2074" xlink-href="a" yc="460"><g transform="translate(1970, 436)"><path d="M 20 0 L 207 0 L 187 47 L 0 47 z" style="fill: rgb(215, 230, 238);stroke-width: 1;stroke: black;"/></g><text x="2074" y="435.5"><tspan dy="14" text-anchor="middle" x="2074">Achieve</tspan><tspan dy="14" text-anchor="middle" x="2074">[AmbulanceMobilizedWhenIncide</tspan><tspan dy="14" text-anchor="middle" x="2074">ntInfoKnown]</tspan></text></g><g id="1222872673472:9"><polyline fill="none" points="2062,436 2016,347 " style="stroke: black;"/></g><g id="1222872673472:365" xc="3527" xlink-href="a" yc="460"><g transform="translate(3422, 436)"><path d="M 21 0 L 209 0 L 189 47 L 0 47 z" style="fill: rgb(215, 230, 238);stroke-width: 1;stroke: black;"/></g><text x="3527" y="435.5"><tspan dy="14" text-anchor="middle" x="3527">Achieve</tspan><tspan dy="14" text-anchor="middle" x="3527">[AppropriateMedicalCareGivenWh</tspan><tspan dy="14" text-anchor="middle" x="3527">enAmbulanceMobilized]</tspan></text></g><g id="1222872673472:8"><polyline fill="none" points="3436,452 2020,340 " style="stroke: black;"/></g><g id="1222872673472:407" xc="1405.5" xlink-href="a" yc="664"><g transform="translate(1300, 640)"><path d="M 21 0 L 210 0 L 189 47 L 0 47 z" style="fill: rgb(215, 230, 238);stroke-width: 1;stroke: black;"/></g><text x="1405.5" y="639.5"><tspan dy="14" text-anchor="middle" x="1405.5">Achieve</tspan><tspan dy="14" text-anchor="middle" x="1405.5">[BestAmbulanceChosenWhenIncid</tspan><tspan dy="14" text-anchor="middle" x="1405.5">entInfoKnown]</tspan></text></g><g id="1222872673472:380"><polyline fill="none" points="1509,645 2067,544 " style="stroke: black;"/></g><g id="1222872673472:363" xc="2744.5" xlink-href="a" yc="664"><g transform="translate(2643, 640)"><path d="M 20 0 L 202 0 L 182 47 L 0 47 z" style="fill: rgb(215, 230, 238);stroke-width: 1;stroke: black;"/></g><text x="2744.5" y="639.5"><tspan dy="14" text-anchor="middle" x="2744.5">Achieve</tspan><tspan dy="14" text-anchor="middle" x="2744.5">[MobilizationOrderTransmittedT</tspan><tspan dy="14" text-anchor="middle" x="2744.5">oAmbulanceCrew]</tspan></text></g><g id="1222872673472:362"><polyline fill="none" points="2659,648 2081,544 " style="stroke: black;"/></g><g id="1222872673472:525" xc="162.5" xlink-href="a" yc="257"><g transform="translate(57, 233)"><path d="M 21 0 L 210 0 L 189 47 L 0 47 z" style="fill: rgb(246, 222, 63);stroke-width: 3;stroke: black;"/></g><text x="162.5" y="239.5"><tspan dy="14" text-anchor="middle" x="162.5">Achieve</tspan><tspan dy="14" text-anchor="middle" x="162.5">[CallReceivedWhenInjuredPeople]</tspan></text></g><g id="1222872673472:575" xc="1083" xlink-href="a" yc="54"><g transform="translate(978, 30)"><path d="M 21 0 L 209 0 L 189 47 L 0 47 z" style="fill: rgb(215, 230, 238);stroke-width: 1;stroke: black;"/></g><text x="1083" y="29.5"><tspan dy="14" text-anchor="middle" x="1083">Achieve</tspan><tspan dy="14" text-anchor="middle" x="1083">[AppropriateMedicalCareGivenWh</tspan><tspan dy="14" text-anchor="middle" x="1083">enInjuredPeople]</tspan></text></g><g id="1222872673472:612"><polyline fill="none" points="263,243 1076,137 " style="stroke: black;"/></g><g id="1222872673472:625"><polyline fill="none" points="1915,245 1090,137 " style="stroke: black;"/></g><g id="1222872673472:734" xc="204" xlink-href="a" yc="664"><g transform="translate(100, 640)"><path d="M 20 0 L 207 0 L 187 47 L 0 47 z" style="fill: rgb(246, 222, 63);stroke-width: 3;stroke: black;"/></g><text x="204" y="639.5"><tspan dy="14" text-anchor="middle" x="204">Achieve</tspan><tspan dy="14" text-anchor="middle" x="204">[IncidentInfoRecordedWhenCallRe</tspan><tspan dy="14" text-anchor="middle" x="204">ceived]</tspan></text></g><g id="1222872673472:735" xc="481" xlink-href="a" yc="664"><g transform="translate(378, 640)"><path d="M 20 0 L 205 0 L 185 47 L 0 47 z" style="fill: rgb(215, 230, 238);stroke-width: 3;stroke: black;"/></g><text x="481" y="639.5"><tspan dy="14" text-anchor="middle" x="481">Achieve</tspan><tspan dy="14" text-anchor="middle" x="481">[IncidentInfoProcessedWhenIncid</tspan><tspan dy="14" text-anchor="middle" x="481">entInfoRecorded]</tspan></text></g><g id="1222872673472:767"><polyline fill="none" points="259,640 474,546 " style="stroke: black;"/></g><g id="1222872673472:769"><polyline fill="none" points="481,640 481,551 " style="stroke: black;"/></g><g id="1222872673472:771" xc="204.5" xlink-href="a" yc="869"><g transform="translate(134, 848)"><path d="M 35 0 L 105 0 L 140 21 L 105 41 L 35 41 L 0 21 z" style="fill: rgb(255, 255, 227);stroke-width: 1;stroke: black;"/></g><text x="204.5" y="858.5"><tspan dy="14" text-anchor="middle" x="204.5">FirstLineAnswerer</tspan></text></g><g id="1222872673472:910" xc="1376.5" xlink-href="a" yc="54"><g transform="translate(1258, 30)"><path d="M 23 0 L 236 0 L 213 47 L 0 47 z" style="fill: rgb(186, 215, 230);stroke-width: 1;stroke: black;"/></g><text x="1376.5" y="29.5"><tspan dy="14" text-anchor="middle" x="1376.5">Achieve</tspan><tspan dy="14" text-anchor="middle" x="1376.5">[AppropriateMedicalCareAreGivenQuic</tspan><tspan dy="14" text-anchor="middle" x="1376.5">kly]</tspan></text></g><g id="1222872673472:1075" xc="1627.5" xlink-href="a" yc="54"><g transform="translate(1565, 44)"><path d="M 31 0 L 93 0 L 124 10 L 93 19 L 31 19 L 0 10 z" style="fill: rgb(255, 255, 227);stroke-width: 1;stroke: black;"/></g><text x="1627.5" y="43.5"><tspan dy="14" text-anchor="middle" x="1627.5">Phone operator</tspan></text></g><g id="1222872673472:1147" xc="249.5" xlink-href="a" yc="460.5"><g transform="translate(191, 440)"><path d="M 18 18 A 5 5 0 1 1 18 8 A 5 5 0 1 1 18 18 L 18 28 M 13 23 L 23 23 M 13 33 L 18 28 L 23 33 M 29 0 L 87 0 L 116 20 L 87 40 L 29 40 L 0 20 z" style="fill: rgb(255, 255, 227);stroke-width: 1;stroke: black;"/></g><text x="249.5" y="450"><tspan dy="14" text-anchor="middle" x="256.8125">Witness</tspan></text></g><g id="1222872673472:1141" xc="75.5" xlink-href="a" yc="460.5"><g transform="translate(30, 440)"><path d="M 11 18 A 5 5 0 1 1 11 8 A 5 5 0 1 1 11 18 L 11 28 M 6 23 L 16 23 M 6 33 L 11 28 L 16 33 M 22 0 L 68 0 L 90 20 L 68 40 L 22 40 L 0 20 z" style="fill: rgb(255, 255, 227);stroke-width: 1;stroke: black;"/></g><text x="75.5" y="450"><tspan dy="14" text-anchor="middle" x="81.1875">Victim</tspan></text></g><g id="1222872673472:1140"><polyline fill="none" points="83,440 123,347 " style="stroke: black;"/></g><g id="1222872673472:1247" xc="481" xlink-href="a" yc="869"><g transform="translate(397, 848)"><path d="M 42 0 L 126 0 L 167 21 L 126 41 L 42 41 L 0 21 z" style="fill: rgb(255, 255, 227);stroke-width: 1;stroke: black;"/></g><text x="481" y="858.5"><tspan dy="14" text-anchor="middle" x="481">Information Processor</tspan></text></g><g id="1222872673472:1160" xc="3665" xlink-href="a" yc="869"><g transform="translate(3597, 848)"><path d="M 23 18 A 5 5 0 1 1 23 8 A 5 5 0 1 1 23 18 L 23 28 M 18 23 L 28 23 M 18 33 L 23 28 L 28 33 M 34 0 L 102 0 L 135 21 L 102 41 L 34 41 L 0 21 z" style="fill: rgb(255, 255, 227);stroke-width: 1;stroke: black;"/></g><text x="3665" y="858.5"><tspan dy="14" text-anchor="middle" x="3673.5">Ambulance Crew</tspan></text></g><g id="1222872673472:1764" xc="759" xlink-href="a" yc="664"><g transform="translate(654, 646)"><path d="M 105 0 L 209 7 L 209 35 L 0 35 L 0 7 z" style="fill: rgb(196, 181, 218);stroke-width: 1;stroke: black;"/></g><text x="759" y="653.5"><tspan dy="14" text-anchor="middle" x="759">IncidentInfoKnownWhenProcessed</tspan></text></g><g id="1222872673472:1774"><polyline fill="none" points="717,646 488,547 " style="stroke: black;"/></g><g id="1222872673472:1840" xc="738" xlink-href="a" yc="869"><g transform="translate(635, 851)"><path d="M 20 0 L 205 0 L 185 35 L 0 35 z" style="fill: rgb(215, 230, 238);stroke-width: 1;stroke: black;"/></g><text x="738" y="851.5"><tspan dy="14" text-anchor="middle" x="738">Maintain</tspan><tspan dy="14" text-anchor="middle" x="738">[AmbulanceAvailabilityKnown]</tspan></text></g><g id="1222872673472:1831" xc="1559" xlink-href="a" yc="875"><g transform="translate(1455, 851)"><path d="M 20 0 L 207 0 L 187 47 L 0 47 z" style="fill: rgb(215, 230, 238);stroke-width: 1;stroke: black;"/></g><text x="1559" y="850.5"><tspan dy="14" text-anchor="middle" x="1559">Maintain</tspan><tspan dy="14" text-anchor="middle" x="1559">[AmbulancePositionKnownAndAcc</tspan><tspan dy="14" text-anchor="middle" x="1559">urate]</tspan></text></g><g id="1222872673472:1804" xc="1817" xlink-href="a" yc="869.5"><g transform="translate(1737, 859)"><path d="M 16 0 L 159 0 L 144 20 L 0 20 z" style="fill: rgb(215, 230, 238);stroke-width: 3;stroke: black;"/></g><text x="1817" y="859"><tspan dy="14" text-anchor="middle" x="1817">AmbulanceKindKnown</tspan></text></g><g id="1222872673472:1836" xc="733" xlink-href="a" yc="1079"><g transform="translate(628, 1048)"><path d="M 21 0 L 209 0 L 189 61 L 0 61 z" style="fill: rgb(215, 230, 238);stroke-width: 3;stroke: black;"/></g><text x="733" y="1054.5"><tspan dy="14" text-anchor="middle" x="733">Achieve</tspan><tspan dy="14" text-anchor="middle" x="733">[AmbulanceAvailabilityRecordedW</tspan><tspan dy="14" text-anchor="middle" x="733">henAmbulanceAvailabilitySent]</tspan></text></g><g id="1222872673472:1839" xc="1014" xlink-href="a" yc="1079"><g transform="translate(908, 1055)"><path d="M 106 0 L 211 9 L 211 47 L 0 47 L 0 9 z" style="fill: rgb(196, 181, 218);stroke-width: 1;stroke: black;"/></g><text x="1014" y="1061.5"><tspan dy="14" text-anchor="middle" x="1014">AmbulanceAvailabilityKnownWhen</tspan><tspan dy="14" text-anchor="middle" x="1014">AmbulanceAvailabilityRecorded</tspan></text></g><g id="1222872673472:1829"><polyline fill="none" points="734,1048 737,958 " style="stroke: black;"/></g><g id="1222872673472:1810"><polyline fill="none" points="962,1055 744,954 " style="stroke: black;"/></g><g id="1222872673472:1808"><polyline fill="none" points="841,851 1455,749 " style="stroke: black;"/></g><g id="1222872673472:1789"><polyline fill="none" points="1541,851 1466,754 " style="stroke: black;"/></g><g id="1222872673472:1807"><polyline fill="none" points="1786,859 1469,750 " style="stroke: black;"/></g><g id="1222872673472:1860" xc="1538" xlink-href="a" yc="1086"><g transform="translate(1435, 1055)"><path d="M 20 0 L 205 0 L 185 61 L 0 61 z" style="fill: rgb(215, 230, 238);stroke-width: 3;stroke: black;"/></g><text x="1538" y="1054.5"><tspan dy="14" text-anchor="middle" x="1538">Achieve</tspan><tspan dy="14" text-anchor="middle" x="1538">[AccurateAmbulancePositionReco</tspan><tspan dy="14" text-anchor="middle" x="1538">rdedWhenAccurateAmbulancePos</tspan><tspan dy="14" text-anchor="middle" x="1538">itionSent]</tspan></text></g><g id="1222872673472:1893" xc="1819.5" xlink-href="a" yc="1079"><g transform="translate(1716, 1062)"><path d="M 103 0 L 206 6 L 206 33 L 0 33 L 0 6 z" style="fill: rgb(196, 181, 218);stroke-width: 1;stroke: black;"/></g><text x="1819.5" y="1061.5"><tspan dy="14" text-anchor="middle" x="1819.5">AmbulancePositionKnownWhenA</tspan><tspan dy="14" text-anchor="middle" x="1819.5">mbulancePositionRecorded</tspan></text></g><g id="1222872673472:1834"><polyline fill="none" points="1542,1055 1554,967 " style="stroke: black;"/></g><g id="1222872673472:1832"><polyline fill="none" points="1782,1062 1562,963 " style="stroke: black;"/></g><g id="1222872673472:1895" xc="2072.5" xlink-href="a" yc="869.5"><g transform="translate(1992, 859)"><path d="M 16 0 L 160 0 L 144 20 L 0 20 z" style="fill: rgb(215, 230, 238);stroke-width: 3;stroke: black;"/></g><text x="2072.5" y="859"><tspan dy="14" text-anchor="middle" x="2072.5">BestAmbulanceChosen</tspan></text></g><g id="1222872673472:1894"><polyline fill="none" points="2019,859 1469,749 " style="stroke: black;"/></g><g id="1222872673472:1913" xc="2326.5" xlink-href="a" yc="869"><g transform="translate(2223, 845)"><path d="M 20 0 L 206 0 L 186 47 L 0 47 z" style="fill: rgb(215, 230, 238);stroke-width: 3;stroke: black;"/></g><text x="2326.5" y="844.5"><tspan dy="14" text-anchor="middle" x="2326.5">Achieve</tspan><tspan dy="14" text-anchor="middle" x="2326.5">[MobilizationOrderSentWhenAmb</tspan><tspan dy="14" text-anchor="middle" x="2326.5">ulanceCrewContacted]</tspan></text></g><g id="1222872673472:1917" xc="2881.5" xlink-href="a" yc="869"><g transform="translate(2781, 845)"><path d="M 20 0 L 200 0 L 180 47 L 0 47 z" style="fill: rgb(246, 222, 63);stroke-width: 3;stroke: black;"/></g><text x="2881.5" y="844.5"><tspan dy="14" text-anchor="middle" x="2881.5">Achieve</tspan><tspan dy="14" text-anchor="middle" x="2881.5">[MobilisationOrderReadWhenMo</tspan><tspan dy="14" text-anchor="middle" x="2881.5">bilizationOrderSent]</tspan></text></g><g id="1222872673472:1922" xc="2076.5" xlink-href="a" yc="663"><g transform="translate(1974, 646)"><path d="M 102 0 L 204 6 L 204 33 L 0 33 L 0 6 z" style="fill: rgb(196, 181, 218);stroke-width: 1;stroke: black;"/></g><text x="2076.5" y="645.5"><tspan dy="14" text-anchor="middle" x="2076.5">MobilizedWhenAmbulanceCrewR</tspan><tspan dy="14" text-anchor="middle" x="2076.5">eceivedMoblisationOrder</tspan></text></g><g id="1222872673472:2023" xc="3162" xlink-href="a" yc="875"><g transform="translate(3058, 851)"><path d="M 104 0 L 207 9 L 207 47 L 0 47 L 0 9 z" style="fill: rgb(196, 181, 218);stroke-width: 1;stroke: black;"/></g><text x="3162" y="857.5"><tspan dy="14" text-anchor="middle" x="3162">MobilisationOrderTransmittedWh</tspan><tspan dy="14" text-anchor="middle" x="3162">enMobilisationOrderRecieved</tspan></text></g><g id="1222872673472:1966"><polyline fill="none" points="2409,845 2736,750 " style="stroke: black;"/></g><g id="1222872673472:1951"><polyline fill="none" points="2854,845 2749,753 " style="stroke: black;"/></g><g id="1222872673472:1957"><polyline fill="none" points="3083,851 2750,750 " style="stroke: black;"/></g><g id="1222872673472:1981"><polyline fill="none" points="2076,646 2074,550 " style="stroke: black;"/></g><g id="1222872673472:2022" xc="3388" xlink-href="a" yc="664.5"><g transform="translate(3285, 639)"><path d="M 20 0 L 205 0 L 185 50 L 0 50 z" style="fill: rgb(246, 222, 63);stroke-width: 3;stroke: black;"/></g><text x="3388" y="640"><tspan dy="14" text-anchor="middle" x="3388">Achieve</tspan><tspan dy="14" text-anchor="middle" x="3388">[AmbulanceOnSceneWhenAmbula</tspan><tspan dy="14" text-anchor="middle" x="3388">nceMobilized]</tspan></text></g><g id="1222872673472:1920" xc="3665.5" xlink-href="a" yc="664.5"><g transform="translate(3562, 639)"><path d="M 20 0 L 206 0 L 186 50 L 0 50 z" style="fill: rgb(246, 222, 63);stroke-width: 3;stroke: black;"/></g><text x="3665.5" y="640"><tspan dy="14" text-anchor="middle" x="3665.5">Achieve</tspan><tspan dy="14" text-anchor="middle" x="3665.5">[AppropriateMedicalCareGivenWh</tspan><tspan dy="14" text-anchor="middle" x="3665.5">enAmbulanceOnScene]</tspan></text></g><g id="1222872673472:1977"><polyline fill="none" points="3417,639 3520,549 " style="stroke: black;"/></g><g id="1222872673472:1978"><polyline fill="none" points="3635,639 3532,549 " style="stroke: black;"/></g><g id="1222872673472:2177" xc="461.5" xlink-href="a" yc="1079"><g transform="translate(365, 1061)"><path d="M 19 0 L 192 0 L 173 35 L 0 35 z" style="fill: rgb(215, 230, 238);stroke-width: 3;stroke: black;"/></g><text x="461.5" y="1061.5"><tspan dy="14" text-anchor="middle" x="461.5">Achieve</tspan><tspan dy="14" text-anchor="middle" x="461.5">[AmbulanceAvailabilitySent]</tspan></text></g><g id="1222872673472:2133" xc="461.5" xlink-href="a" yc="1288"><g transform="translate(397, 1265)"><path d="M 32 0 L 96 0 L 128 23 L 96 45 L 32 45 L 0 23 z" style="fill: rgb(255, 255, 227);stroke-width: 1;stroke: black;"/></g><text x="461.5" y="1277.5"><tspan dy="14" text-anchor="middle" x="461.5">AmbulanceMDT</tspan></text></g><g id="1222872673472:2027" xc="733" xlink-href="a" yc="1288"><g transform="translate(659, 1265)"><path d="M 37 0 L 111 0 L 147 23 L 111 45 L 37 45 L 0 23 z" style="fill: rgb(255, 255, 227);stroke-width: 1;stroke: black;"/></g><text x="733" y="1277.5"><tspan dy="14" text-anchor="middle" x="733">AmbulanceTracker</tspan></text></g><g id="1222872673472:2064"><polyline fill="none" points="500,1061 730,954 " style="stroke: black;"/></g><g id="1222872673472:2033" xc="1295" xlink-href="a" yc="1085"><g transform="translate(1190, 1061)"><path d="M 21 0 L 209 0 L 189 47 L 0 47 z" style="fill: rgb(215, 230, 238);stroke-width: 3;stroke: black;"/></g><text x="1295" y="1067.5"><tspan dy="14" text-anchor="middle" x="1295">Achieve</tspan><tspan dy="14" text-anchor="middle" x="1295">[AccurateAmbulancePositionSent]</tspan></text></g><g id="1222872673472:2094"><polyline fill="none" points="1345,1061 1548,963 " style="stroke: black;"/></g><g id="1222872673472:2176" xc="1027.5" xlink-href="a" yc="1288"><g transform="translate(963, 1265)"><path d="M 32 0 L 96 0 L 128 23 L 96 45 L 32 45 L 0 23 z" style="fill: rgb(255, 255, 227);stroke-width: 1;stroke: black;"/></g><text x="1027.5" y="1277.5"><tspan dy="14" text-anchor="middle" x="1027.5">AmbulanceGPS</tspan></text></g><g id="1222872673472:2053" xc="2072" xlink-href="a" yc="1079"><g transform="translate(1993, 1058)"><path d="M 39 0 L 118 0 L 157 21 L 118 41 L 39 41 L 0 21 z" style="fill: rgb(255, 255, 227);stroke-width: 1;stroke: black;"/></g><text x="2072" y="1068.5"><tspan dy="14" text-anchor="middle" x="2072">InformationProcessor</tspan></text></g><g id="1222872673472:2036" xc="2326" xlink-href="a" yc="1079"><g transform="translate(2235, 1058)"><path d="M 45 0 L 136 0 L 181 21 L 136 41 L 45 41 L 0 21 z" style="fill: rgb(255, 255, 227);stroke-width: 1;stroke: black;"/></g><text x="2326" y="1068.5"><tspan dy="14" text-anchor="middle" x="2326">CommunicationOperator</tspan></text></g><g id="1222872673472:2074" xc="2884" xlink-href="a" yc="1079"><g transform="translate(2800, 1058)"><path d="M 31 18 A 5 5 0 1 1 31 8 A 5 5 0 1 1 31 18 L 31 28 M 26 23 L 36 23 M 26 33 L 31 28 L 36 33 M 42 0 L 126 0 L 167 21 L 126 41 L 42 41 L 0 21 z" style="fill: rgb(255, 255, 227);stroke-width: 1;stroke: black;"/></g><text x="2884" y="1068.5"><tspan dy="14" text-anchor="middle" x="2894.5">AmbulanceCrew</tspan></text></g><g id="1222872673472:2188" xc="3388" xlink-href="a" yc="869"><g transform="translate(3338, 848)"><path d="M 14 18 A 5 5 0 1 1 14 8 A 5 5 0 1 1 14 18 L 14 28 M 9 23 L 19 23 M 9 33 L 14 28 L 19 33 M 25 0 L 75 0 L 99 21 L 75 41 L 25 41 L 0 21 z" style="fill: rgb(255, 255, 227);stroke-width: 1;stroke: black;"/></g><text x="3388" y="858.5"><tspan dy="14" text-anchor="middle" x="3394.25">Ambulance</tspan></text></g><g id="1222872673472:2200" xc="2605.5" xlink-href="a" yc="869"><g transform="translate(2500, 845)"><path d="M 21 0 L 210 0 L 189 47 L 0 47 z" style="fill: rgb(215, 230, 238);stroke-width: 3;stroke: black;"/></g><text x="2605.5" y="844.5"><tspan dy="14" text-anchor="middle" x="2605.5">Achieve</tspan><tspan dy="14" text-anchor="middle" x="2605.5">[MobilizationOrderReceivedWhen</tspan><tspan dy="14" text-anchor="middle" x="2605.5">MobilizationOrderSent]</tspan></text></g><g id="1222872673472:2203"><polyline fill="none" points="2632,845 2737,753 " style="stroke: black;"/></g><g id="1222872673472:2229"><polyline fill="none" points="511,1278 1813,1023 " style="stroke: black;"/></g><g id="1222872673472:2362"><polyline fill="none" points="240,440 199,347 " style="stroke: black;"/></g><g id="1222872673472:2394"><polyline fill="none" points="3388,848 3388,756 " style="stroke: black;"/></g><g id="1222872673472:2430"><polyline fill="none" points="3665,848 3665,756 " style="stroke: black;"/></g><g id="1222872673472:2412"><polyline fill="none" points="2883,1058 2882,962 " style="stroke: black;"/></g><g id="1222872673472:2377"><polyline fill="none" points="2072,1058 2072,953 " style="stroke: black;"/></g><g id="1222872673472:2404"><polyline fill="none" points="2326,1058 2326,962 " style="stroke: black;"/></g><g id="1222872673472:2432"><polyline fill="none" points="1057,1265 1179,1172 " style="stroke: black;"/></g><g id="1222872673472:2425"><polyline fill="none" points="461,1265 461,1167 " style="stroke: black;"/></g><g id="1222872673472:2416"><polyline fill="none" points="733,1265 733,1176 " style="stroke: black;"/></g><g id="1222872673472:2435"><polyline fill="none" points="481,848 481,755 " style="stroke: black;"/></g><g id="1222872673472:2428"><polyline fill="none" points="204,848 204,755 " style="stroke: black;"/></g><g id="1222872673472:2427"><polyline fill="none" points="785,1274 1194,1171 " style="stroke: black;"/></g><g id="1222872673472:2407"><polyline fill="none" points="778,1270 1430,1018 " style="stroke: black;"/></g><g id="1222872673472:2750" xc="1192" xlink-href="a" yc="1299"><g transform="translate(1092, 1282)"><path d="M 20 0 L 199 0 L 180 33 L 0 33 z" style="fill: rgb(215, 230, 238);stroke-width: 1;stroke: black;"/></g><text x="1192" y="1281.5"><tspan dy="14" text-anchor="middle" x="1192">Maintain</tspan><tspan dy="14" text-anchor="middle" x="1192">[HighTransmissionFrequency]</tspan></text></g><g id="1222872673472:3046"><polyline fill="none" points="1200,1282 1250,1179 " style="stroke: black;"/></g><g id="1222872673472:2752" xc="1388" xlink-href="a" yc="1294"><g transform="translate(1312, 1284)"><path d="M 15 0 L 151 0 L 136 19 L 0 19 z" style="fill: rgb(215, 230, 238);stroke-width: 1;stroke: black;"/></g><text x="1388" y="1283.5"><tspan dy="14" text-anchor="middle" x="1388">Avoid[GPSInnacurate]</tspan></text></g><g id="1222872673472:2879" xc="1572.5" xlink-href="a" yc="1298"><g transform="translate(1482, 1288)"><path d="M 18 0 L 180 0 L 162 19 L 0 19 z" style="fill: rgb(215, 230, 238);stroke-width: 1;stroke: black;"/></g><text x="1572.5" y="1287.5"><tspan dy="14" text-anchor="middle" x="1572.5">Maintain[AllZoneCovered]</tspan></text></g><g id="1222872673472:2832" xc="1779.5" xlink-href="a" yc="1326"><g transform="translate(1674, 1288)"><path d="M 21 0 L 210 0 L 189 75 L 0 75 z" style="fill: rgb(215, 230, 238);stroke-width: 1;stroke: black;"/></g><text x="1779.5" y="1287.5"><tspan dy="14" text-anchor="middle" x="1779.5">Achieve</tspan><tspan dy="14" text-anchor="middle" x="1779.5">[AmbulanceAtAmbulanceStationW</tspan><tspan dy="14" text-anchor="middle" x="1779.5">henNoSatteliteOrGPSBrokenOrTra</tspan><tspan dy="14" text-anchor="middle" x="1779.5">nsmissionDeviceBrokenAndAmbul</tspan><tspan dy="14" text-anchor="middle" x="1779.5">anceNotMobilised]</tspan></text></g><g id="1222872673472:3247"><polyline fill="none" points="1383,1284 1335,1177 " style="stroke: black;"/></g><g id="1222872673472:3141"><polyline fill="none" points="1559,1288 1414,1176 " style="stroke: black;"/></g><g id="1222872673472:3165"><polyline fill="none" points="1703,1288 1495,1184 " style="stroke: black;"/></g><g id="1222872673472:5"><polyline fill="none" points="2013,333 2007,281 " style="stroke: black;marker-end : url(#ArrowRefinementDefaultAndOrRepresentation); "/><ellipse cx="2013.5" cy="340.5" rx="7.5" ry="7.5" style="stroke: black; fill: rgb(246, 222, 63); stroke-width: 1"/><g transform="translate(2006, 333)"><g transform="scale(1.0714285714285714, 1.0714285714285714)"><path d="M 3 7 L 6 9 L 13 4 L 6 11 z" style="stroke: black; stroke-width: 0.1"/></g></g></g><g id="1222872673472:364"><polyline fill="none" points="2074,536 2074,484 " style="stroke: black;marker-end : url(#ArrowRefinementDefaultAndOrRepresentation); "/><ellipse cx="2074.5" cy="543.5" rx="7.5" ry="7.5" style="stroke: black; fill: rgb(246, 222, 63); stroke-width: 1"/></g><g id="1222872673472:632"><polyline fill="none" points="1083,130 1083,78 " style="stroke: black;marker-end : url(#ArrowRefinementDefaultAndOrRepresentation); "/><ellipse cx="1083.5" cy="137.5" rx="7.5" ry="7.5" style="stroke: black; fill: rgb(246, 222, 63); stroke-width: 1"/></g><g id="1222872673472:766"><polyline fill="none" points="481,537 481,484 " style="stroke: black;marker-end : url(#ArrowRefinementDefaultAndOrRepresentation); "/><ellipse cx="481.5" cy="544.5" rx="7.5" ry="7.5" style="stroke: black; fill: rgb(246, 222, 63); stroke-width: 1"/></g><g id="1222872673472:1142"><polyline fill="none" points="128,333 152,281 " style="stroke: black;marker-end : url(#ArrowAssignmentDefaultAndOrRepresentation); "/><ellipse cx="126.5" cy="340.5" rx="7.5" ry="7.5" style="stroke: black; fill: rgb(255, 163, 195); stroke-width: 1"/></g><g id="1222872673472:1842"><polyline fill="none" points="737,943 738,887 " style="stroke: black;marker-end : url(#ArrowRefinementDefaultAndOrRepresentation); "/><ellipse cx="737.5" cy="951.5" rx="7.5" ry="7.5" style="stroke: black; fill: rgb(246, 222, 63); stroke-width: 1"/></g><g id="1222872673472:1800"><polyline fill="none" points="1458,742 1421,688 " style="stroke: black;marker-end : url(#ArrowRefinementDefaultAndOrRepresentation); "/><ellipse cx="1462.5" cy="748.5" rx="7.5" ry="7.5" style="stroke: black; fill: rgb(246, 222, 63); stroke-width: 1"/></g><g id="1222872673472:1830"><polyline fill="none" points="1555,953 1558,899 " style="stroke: black;marker-end : url(#ArrowRefinementDefaultAndOrRepresentation); "/><ellipse cx="1555.5" cy="960.5" rx="7.5" ry="7.5" style="stroke: black; fill: rgb(246, 222, 63); stroke-width: 1"/></g><g id="1222872673472:1962"><polyline fill="none" points="2743,740 2744,688 " style="stroke: black;marker-end : url(#ArrowRefinementDefaultAndOrRepresentation); "/><ellipse cx="2743.5" cy="748.5" rx="7.5" ry="7.5" style="stroke: black; fill: rgb(246, 222, 63); stroke-width: 1"/></g><g id="1222872673472:1976"><polyline fill="none" points="3526,536 3527,484 " style="stroke: black;marker-end : url(#ArrowRefinementDefaultAndOrRepresentation); "/><ellipse cx="3526.5" cy="544.5" rx="7.5" ry="7.5" style="stroke: black; fill: rgb(246, 222, 63); stroke-width: 1"/></g><g id="1222872673472:2226"><polyline fill="none" points="1827,1021 2499,889 " style="stroke: black;marker-end : url(#ArrowAssignmentDefaultAndOrRepresentation); "/><ellipse cx="1820.5" cy="1022.5" rx="7.5" ry="7.5" style="stroke: black; fill: rgb(255, 163, 195); stroke-width: 1"/></g><g id="1222872673472:2363"><polyline fill="none" points="194,333 172,281 " style="stroke: black;marker-end : url(#ArrowAssignmentDefaultAndOrRepresentation); "/><ellipse cx="197.5" cy="340.5" rx="7.5" ry="7.5" style="stroke: black; fill: rgb(255, 163, 195); stroke-width: 1"/></g><g id="1222872673472:2393"><polyline fill="none" points="3388,742 3388,690 " style="stroke: black;marker-end : url(#ArrowResponsibilityDefaultAndOrRepresentation); "/><ellipse cx="3388.5" cy="749.5" rx="7.5" ry="7.5" style="stroke: black; fill: rgb(204, 0, 0); stroke-width: 1"/></g><g id="1222872673472:2434"><polyline fill="none" points="3665,742 3665,690 " style="stroke: black;marker-end : url(#ArrowResponsibilityDefaultAndOrRepresentation); "/><ellipse cx="3665.5" cy="749.5" rx="7.5" ry="7.5" style="stroke: black; fill: rgb(204, 0, 0); stroke-width: 1"/></g><g id="1222872673472:2411"><polyline fill="none" points="2882,948 2881,893 " style="stroke: black;marker-end : url(#ArrowResponsibilityDefaultAndOrRepresentation); "/><ellipse cx="2882.5" cy="955.5" rx="7.5" ry="7.5" style="stroke: black; fill: rgb(204, 0, 0); stroke-width: 1"/></g><g id="1222872673472:2376"><polyline fill="none" points="2072,939 2072,880 " style="stroke: black;marker-end : url(#ArrowResponsibilityDefaultAndOrRepresentation); "/><ellipse cx="2072.5" cy="946.5" rx="7.5" ry="7.5" style="stroke: black; fill: rgb(204, 0, 0); stroke-width: 1"/></g><g id="1222872673472:2431"><polyline fill="none" points="2326,948 2326,893 " style="stroke: black;marker-end : url(#ArrowResponsibilityDefaultAndOrRepresentation); "/><ellipse cx="2326.5" cy="955.5" rx="7.5" ry="7.5" style="stroke: black; fill: rgb(204, 0, 0); stroke-width: 1"/></g><g id="1222872673472:2429"><polyline fill="none" points="1191,1164 1263,1109 " style="stroke: black;marker-end : url(#ArrowResponsibilityDefaultAndOrRepresentation); "/><ellipse cx="1185.5" cy="1168.5" rx="7.5" ry="7.5" style="stroke: black; fill: rgb(204, 0, 0); stroke-width: 1"/></g><g id="1222872673472:2424"><polyline fill="none" points="461,1153 461,1097 " style="stroke: black;marker-end : url(#ArrowResponsibilityDefaultAndOrRepresentation); "/><ellipse cx="461.5" cy="1160.5" rx="7.5" ry="7.5" style="stroke: black; fill: rgb(204, 0, 0); stroke-width: 1"/></g><g id="1222872673472:2415"><polyline fill="none" points="733,1162 733,1110 " style="stroke: black;marker-end : url(#ArrowResponsibilityDefaultAndOrRepresentation); "/><ellipse cx="733.5" cy="1169.5" rx="7.5" ry="7.5" style="stroke: black; fill: rgb(204, 0, 0); stroke-width: 1"/></g><g id="1222872673472:2433"><polyline fill="none" points="481,741 481,688 " style="stroke: black;marker-end : url(#ArrowResponsibilityDefaultAndOrRepresentation); "/><ellipse cx="481.5" cy="748.5" rx="7.5" ry="7.5" style="stroke: black; fill: rgb(204, 0, 0); stroke-width: 1"/></g><g id="1222872673472:2426"><polyline fill="none" points="204,741 204,688 " style="stroke: black;marker-end : url(#ArrowResponsibilityDefaultAndOrRepresentation); "/><ellipse cx="204.5" cy="748.5" rx="7.5" ry="7.5" style="stroke: black; fill: rgb(204, 0, 0); stroke-width: 1"/></g><g id="1222872673472:2421"><polyline fill="none" points="1208,1169 1435,1111 " style="stroke: black;marker-end : url(#ArrowResponsibilityDefaultAndOrRepresentation); "/><ellipse cx="1201.5" cy="1170.5" rx="7.5" ry="7.5" style="stroke: black; fill: rgb(204, 0, 0); stroke-width: 1"/></g><g id="1222872673472:2406"><polyline fill="none" points="1444,1014 1790,880 " style="stroke: black;marker-end : url(#ArrowResponsibilityDefaultAndOrRepresentation); "/><ellipse cx="1437.5" cy="1016.5" rx="7.5" ry="7.5" style="stroke: black; fill: rgb(204, 0, 0); stroke-width: 1"/></g><g id="1222872673472:3018"><polyline fill="none" points="1256,1165 1283,1109 " style="stroke: black;marker-end : url(#ArrowRefinementDefaultAndOrRepresentation); "/><ellipse cx="1253.5" cy="1172.5" rx="7.5" ry="7.5" style="stroke: black; fill: rgb(246, 222, 63); stroke-width: 1"/></g><g id="1222872673472:3248"><polyline fill="none" points="1329,1163 1305,1109 " style="stroke: black;marker-end : url(#ArrowRefinementDefaultAndOrRepresentation); "/><ellipse cx="1332.5" cy="1170.5" rx="7.5" ry="7.5" style="stroke: black; fill: rgb(246, 222, 63); stroke-width: 1"/></g><g id="1222872673472:3230"><polyline fill="none" points="1402,1168 1326,1109 " style="stroke: black;marker-end : url(#ArrowRefinementDefaultAndOrRepresentation); "/><ellipse cx="1408.5" cy="1172.5" rx="7.5" ry="7.5" style="stroke: black; fill: rgb(246, 222, 63); stroke-width: 1"/></g><g id="1222872673472:3156"><polyline fill="none" points="1481,1178 1343,1109 " style="stroke: black;marker-end : url(#ArrowRefinementDefaultAndOrRepresentation); "/><ellipse cx="1488.5" cy="1181.5" rx="7.5" ry="7.5" style="stroke: black; fill: rgb(246, 222, 63); stroke-width: 1"/></g></g></svg>