<?xml version="1.0" encoding="ISO-8859-1"?>
<svg height="10cm" id="svg-root" preserveAspectRatio="xMidYMid meet" viewBox="1 3 843 575" width="165.09999999999997mm" xmlns="http://www.w3.org/2000/svg" xmlns:java="http://xml.apache.org/xslt/java" xmlns:xlink="http://www.w3.org/1999/xlink"><title>AccurateAmbulancePositionSent Obstacle </title><style type="text/css">line {stroke: #000000; stroke-width: 0.75;}</style><style type="text/css">text {  
        font-family:Arial, Helvetica, Geneva, sans serif;
        font-size:10;
        text-anchor:middle;
        fill:black;
        font-weight:bold;
        stroke-width:5;
      }</style><style media="print" type="text/css">.background {fill:#FFFFFF;}</style><style media="screen" type="text/css">.background {fill:#3384ad;}</style><radialGradient cx=".5" cy=".5" fx=".5" fy=".5" gradientUnits="objectBoundingBox" id="focusserGradient" r=".5"><stop offset="0.0225" style="stop-color:#FFFFFF"/><stop offset="0.0794" style="stop-color:#FBFEF7"/><stop offset="0.1685" style="stop-color:#F1FBE1"/><stop offset="0.2784" style="stop-color:#E1F5BC"/><stop offset="0.4038" style="stop-color:#CAEE8B"/><stop offset="0.4551" style="stop-color:#C0EB74"/><stop offset="1" style="stop-color:#006699"/></radialGradient><defs><marker id="ArrowControlLine" markerHeight="30" markerUnits="userSpaceOnUse" markerWidth="30" orient="auto" style="stroke: black; stroke-width: 2;fill: rgb(0, 0, 0);" viewBox="-40 -25 80 50"><path d="M 0 0 L -30 15 L -30 -15 z"/></marker><marker id="ArrowObstructionLine" markerHeight="60" markerUnits="userSpaceOnUse" markerWidth="60" orient="auto" style="stroke: black; stroke-width: 2.5;fill: rgb(251, 157, 128);" viewBox="-80 -50 160 100"><path d="M -50 15 L -50 -15 L -49 -15 L -49 15 M 0 0 L -30 15 L -23 0 L -30 -15 L 0 0 z"/></marker><marker id="ArrowDocumentationLine" markerHeight="30" markerUnits="userSpaceOnUse" markerWidth="30" orient="auto" style="stroke: black; stroke-width: 2;fill: rgb(0, 0, 0);" viewBox="-40 -25 80 50"><path d="M 0 0 L -30 15 L -30 -15 z"/></marker><marker class="background" id="ArrowIsALine" markerHeight="30" markerUnits="userSpaceOnUse" markerWidth="30" orient="auto" style="stroke: black; stroke-width: 2.5;" viewBox="-40 -25 80 50"><path d="M 0 0 L -30 15 L -30 -15 z" style="fill:white"/><path class="background" d="M 0 0 L -30 15 L -30 -15 z" id="background_ARROW_ISA" style="visibility:hidden"/></marker><marker id="ArrowPerformanceLine" markerHeight="30" markerUnits="userSpaceOnUse" markerWidth="30" orient="auto" style="stroke: black; stroke-width: 2;fill: rgb(0, 0, 0);" viewBox="-40 -25 80 50"><path d="M 0 0 L -30 15 L -30 -15 z"/></marker><marker id="ArrowMonitoringAgentLineUseCaseViewType" markerHeight="30" markerUnits="userSpaceOnUse" markerWidth="30" orient="auto" style="stroke: black; stroke-width: 2;fill: rgb(0, 0, 0);" viewBox="-40 -25 80 50"><path d="M 0 0 L -30 15 L -30 -15 z"/></marker><marker id="ArrowInputLine" markerHeight="30" markerUnits="userSpaceOnUse" markerWidth="30" orient="auto" style="stroke: black; stroke-width: 2;fill: rgb(0, 0, 0);" viewBox="-40 -25 80 50"><path d="M 0 0 L -30 15 L -30 -15 z"/></marker><marker id="ArrowConcernsLine" markerHeight="30" markerUnits="userSpaceOnUse" markerWidth="30" orient="auto" style="stroke: black; stroke-width: 2;fill: rgb(0, 0, 0);" viewBox="-40 -25 80 50"><path d="M 0 0 L -30 15 L -30 -15 z"/></marker><marker id="ArrowCauseLine" markerHeight="30" markerUnits="userSpaceOnUse" markerWidth="30" orient="auto" style="stroke: black; stroke-width: 2;fill: rgb(0, 0, 0);" viewBox="-40 -25 80 50"><path d="M 0 0 L -30 15 L -30 -15 z"/></marker><marker id="ArrowConflictLine" markerUnits="userSpaceOnUse" orient="auto" style="stroke: black; stroke-width: 2;fill: rgb(255, 0, 0);"/><marker id="ArrowMonitoringLine" markerHeight="30" markerUnits="userSpaceOnUse" markerWidth="30" orient="auto" style="stroke: black; stroke-width: 2;fill: rgb(0, 0, 0);" viewBox="-40 -25 80 50"><path d="M 0 0 L -30 15 L -30 -15 z"/></marker><marker id="ArrowIncludeLineUseCaseViewType" markerHeight="30" markerUnits="userSpaceOnUse" markerWidth="30" orient="auto" style="stroke: black; stroke-width: 2;fill: rgb(0, 0, 0);" viewBox="-40 -25 80 50"><path d="M 0 0 L -30 15 L -30 -15 z"/></marker><marker id="ArrowOutputLine" markerHeight="30" markerUnits="userSpaceOnUse" markerWidth="30" orient="auto" style="stroke: black; stroke-width: 2;fill: rgb(0, 0, 0);" viewBox="-40 -25 80 50"><path d="M 0 0 L -30 15 L -30 -15 z"/></marker><marker id="ArrowControlOperationLineUseCaseViewType" markerHeight="30" markerUnits="userSpaceOnUse" markerWidth="30" orient="auto" style="stroke: black; stroke-width: 2;fill: rgb(0, 0, 0);" viewBox="-40 -25 80 50"><path d="M 0 0 L -30 15 L -30 -15 z"/></marker><marker id="ArrowResolutionLine" markerHeight="60" markerUnits="userSpaceOnUse" markerWidth="60" orient="auto" style="stroke: black; stroke-width: 2.5;fill: rgb(153, 255, 153);" viewBox="-80 -50 160 100"><path d="M -50 15 L -50 -15 L -49 -15 L -49 15 M 0 0 L -30 15 L -23 0 L -30 -15 L 0 0 z"/></marker><marker id="ArrowConflictLine" markerUnits="userSpaceOnUse" orient="auto" style="stroke: black; stroke-width: 2;fill: rgb(255, 0, 0);"/><marker id="ArrowRefinementDefaultAndOrRepresentation" markerHeight="30" markerUnits="userSpaceOnUse" markerWidth="30" orient="auto" style="stroke: black; stroke-width: 2;fill: rgb(246, 222, 63);" viewBox="-40 -25 80 50"><path d="M 0 0 L -30 15 L -23 0 L -30 -15 z"/></marker><marker id="ArrowOperationalizationDefaultAndOrRepresentation" markerHeight="30" markerUnits="userSpaceOnUse" markerWidth="30" orient="auto" style="stroke: black; stroke-width: 2;fill: rgb(102, 153, 255);" viewBox="-40 -25 80 50"><path d="M 0 0 L -30 15 L -23 0 L -30 -15 z"/></marker><marker id="ArrowAssignmentDefaultAndOrRepresentation" markerHeight="30" markerUnits="userSpaceOnUse" markerWidth="30" orient="auto" style="stroke: black; stroke-width: 2;fill: rgb(255, 163, 195);" viewBox="-40 -25 80 50"><path d="M 0 0 L -30 15 L -23 0 L -30 -15 z"/></marker><marker id="ArrowO_RefinementDefaultAndOrRepresentation" markerHeight="30" markerUnits="userSpaceOnUse" markerWidth="30" orient="auto" style="stroke: black; stroke-width: 2;fill: rgb(251, 157, 128);" viewBox="-40 -25 80 50"><path d="M 0 0 L -30 15 L -23 0 L -30 -15 z"/></marker><marker id="ArrowResponsibilityDefaultAndOrRepresentation" markerHeight="30" markerUnits="userSpaceOnUse" markerWidth="30" orient="auto" style="stroke: black; stroke-width: 2;fill: rgb(204, 0, 0);" viewBox="-40 -25 80 50"><path d="M 0 0 L -30 15 L -23 0 L -30 -15 z"/></marker><marker id="SignStopLine" markerHeight="40" markerUnits="userSpaceOnUse" markerWidth="40" orient="auto" style="fill:#FF0033; stroke:white; stroke-width:2;" viewBox="-50 -50 100 100"><path d="M 20 0 L 10 15 L -10 15 L -20 0 L -10 -15 L 10 -15 z"/><text style="font-size:11; fill:white; stroke-width:0.1;" x="0" y="4">STOP</text></marker><marker id="SignConflictLine" markerHeight="60" markerUnits="userSpaceOnUse" markerWidth="30" orient="auto" style="fill:#FF0000; stroke:black; stroke-width:2;" viewBox="-45 -60 90 120"><path d="M 9 -38.7 L -5.3 -2.7 L 16.7 -8.3 L -15.6 38.7 L 1.7 1.7 L -20 7.3 z"/></marker><marker id="ArrowAggregation" markerHeight="60" markerWidth="60" orient="auto" viewBox="-80 -50 160 100"><path d="M 0 0 L 30 15 L 60 0 L 30 -15 z" style="stroke: black; fill:white; stroke-width: 2.5;"/><path class="background" d="M 0 0 L 30 15 L 60 0 L 30 -15 z" id="background_ARROW_AGGREGATION" style="visibility:hidden; stroke: black; stroke-width: 2.5;"/></marker><marker id="ArrowComposition" markerHeight="60" markerWidth="60" orient="auto" viewBox="-80 -50 160 100"><path d="M 0 0 L 30 15 L 60 0 L 30 -15 z"/></marker><marker id="ArrowAssociationDirected" markerHeight="30" markerWidth="30" orient="auto" style="stroke : black; fill: none; stroke-width: 2.5;" viewBox="-40 -25 80 50"><path d="M -30 15 L 0 0 L -30 -15"/></marker><g id="IssueMark" transform="scale(0.45, 0.45)"><g style="fill-rule:nonzero;clip-rule:nonzero;stroke:#000000;stroke-miterlimit:4;"><g><radialGradient cx="5.4365" cy="5.127" fx="5.4365" fy="5.127" gradientUnits="userSpaceOnUse" id="aigrd1" r="5.2803"><stop offset="0" style="stop-color:#FFFFFF"/><stop offset="1" style="stop-color:#99CCCC"/></radialGradient><path d="M15.1055,7.5532c0,4.1714-3.3809,7.5532-7.5527,7.5532S0,11.7246,0,7.5532S3.3809,0,7.5527,0s7.5527,3.3818,7.5527,7.5532z" style="fill:url(#aigrd1);stroke:none;"/></g></g><g style="fill-rule:nonzero;clip-rule:nonzero;stroke:#000000;stroke-miterlimit:4;"><path d="M7.0908,9.2915C7.0742,8.9873,7.0586,8.7632,7.0586,8.5874c0-1.4082,1.2002-1.9199,1.2002-3.9521c0-0.6719-0.1279-2.0957-1.376-2.0957c-0.1445,0-0.9443,0.0479-0.9443,0.6396c0,0.48,0.5918,0.4961,0.5918,1.2803          c0,0.832-0.6563,1.0239-0.9756,1.0239c-0.8164,0-1.1201-0.6719-1.1201-1.2319c0-0.6563,0.4795-2.2881,3.1035-2.2881c0.4961,0,3.1045,0.1763,3.1045,2.7202c0,1.0239-0.6563,1.792-1.5039,2.3198C8.3389,7.4995,7.9229,7.7393,7.7305,8.1392          c-0.1279,0.2563-0.1602,0.624-0.1602,1.1523H7.0908z M7.3467,10.4912c0.7354,0,1.3438,0.624,1.3438,1.3604c0,0.7676-0.6084,1.3438-1.3438,1.3438c-0.7686,0-1.3604-0.5918-1.3604-1.3438c0-0.7202,0.5918-1.3604,1.3604-1.3604z" style="stroke:none;"/></g></g><g id="InfoMark" transform="scale(0.45, 0.45)"><g style="fill-rule:nonzero;clip-rule:nonzero;stroke:#000000;stroke-miterlimit:4"><g><radialGradient cx="5.4365" cy="7.0996" fx="5.4365" fy="7.0996" gradientUnits="userSpaceOnUse" id="aigrd1" r="5.2803"><stop offset="0" style="stop-color:#FFFFFF"/><stop offset="1" style="stop-color:#99CCCC"/></radialGradient><path d="M15.1055,9.5259c0,4.1714-3.3809,7.5532-7.5527,7.5532S0,13.6973,0,9.5259s3.3809-7.5532,7.5527-7.5532s7.5527,3.3818,7.5527,7.5532z" style="fill:url(#aigrd1);stroke:none;"/></g><path d="M9.8125,14.4556H5.9883v-0.3838c0.5762-0.144,0.8477-0.1924,0.8477-0.9604V8.4077c0-0.7202-0.2393-0.832-0.8477-0.9438V7.0796h3.0723v6.0801c0,0.4961,0.1279,0.8481,0.752,0.9121v0.3838z M7.9404,3.3999          c0.6875,0,1.2324,0.5596,1.2324,1.2476c0,0.7041-0.5449,1.2324-1.2324,1.2324c-0.7363,0-1.248-0.5444-1.248-1.2324c0-0.6719,0.5283-1.2476,1.248-1.2476z" style="stroke:none;"/></g><g style="display:none;fill-rule:nonzero;clip-rule:nonzero;stroke:#000000;stroke-miterlimit:4;"><text style="stroke:none;" transform="matrix(1 0 0 1 3.5225 14.96)"><tspan style="stroke:none; font-family:'Times-Bold; serif'; font-size:16;" x="0" y="0">?</tspan></text></g></g></defs><rect class="background" height="10000" id="svgBackground" style="visibility:hidden;" width="10000" x="-5000" y="-5000"/><g id="1222872673472:2760"><g id="1222872673472:2033" xc="229" xlink-href="a" yc="30"><g transform="translate(124, 6)"><path d="M 21 0 L 209 0 L 189 47 L 0 47 z" style="fill: rgb(246, 222, 63);stroke-width: 3;stroke: black;"/></g><text x="229" y="12.5"><tspan dy="14" text-anchor="middle" x="229">Achieve</tspan><tspan dy="14" text-anchor="middle" x="229">[AccurateAmbulancePositionSent]</tspan></text></g><g id="1222872673472:2757" xc="229" xlink-href="a" yc="108"><g transform="translate(124, 84)"><path d="M 0 0 L 189 0 L 209 47 L 21 47 z" style="fill: rgb(251, 157, 128);stroke-width: 1;stroke: black;"/></g><text x="229" y="90.5"><tspan dy="14" text-anchor="middle" x="229">Not</tspan><tspan dy="14" text-anchor="middle" x="229">[AccurateAmbulancePositionSent]</tspan></text></g><g id="1222872673472:2758" xc="117.5" xlink-href="a" yc="191"><g transform="translate(10, 171)"><path d="M 0 0 L 193 0 L 214 39 L 21 39 z" style="fill: rgb(251, 157, 128);stroke-width: 1;stroke: black;"/></g><text x="117.5" y="180.5"><tspan dy="14" text-anchor="middle" x="117.5">InaccurateAmbulancePositionSent</tspan></text></g><g id="1222872673472:2754" xc="76.5" xlink-href="a" yc="261"><g transform="translate(18, 251)"><path d="M 0 0 L 105 0 L 116 19 L 11 19 z" style="fill: rgb(251, 157, 128);stroke-width: 1;stroke: black;"/></g><text x="76.5" y="250.5"><tspan dy="14" text-anchor="middle" x="76.5">AVLSInaccurate</tspan></text></g><g id="1222872673472:2752" xc="92" xlink-href="a" yc="301"><g transform="translate(12, 291)"><path d="M 16 0 L 159 0 L 144 19 L 0 19 z" style="fill: rgb(215, 230, 238);stroke-width: 1;stroke: black;"/></g><text x="92" y="290.5"><tspan dy="14" text-anchor="middle" x="92">Avoid[AVLSInnacurate]</tspan></text></g><g id="1222872673472:2804" xc="228" xlink-href="a" yc="292"><g transform="translate(183, 282)"><path d="M 0 0 L 81 0 L 89 19 L 9 19 z" style="fill: rgb(251, 157, 128);stroke-width: 1;stroke: black;"/></g><text x="228" y="281.5"><tspan dy="14" text-anchor="middle" x="228">NoSattelite</tspan></text></g><g id="1222872673472:2879" xc="617.5" xlink-href="a" yc="332"><g transform="translate(527, 322)"><path d="M 18 0 L 180 0 L 162 19 L 0 19 z" style="fill: rgb(215, 230, 238);stroke-width: 1;stroke: black;"/></g><text x="617.5" y="321.5"><tspan dy="14" text-anchor="middle" x="617.5">Maintain[AllZoneCovered]</tspan></text></g><g id="1222872673472:2995"><polyline fill="none" points="229,84 229,54 " style="stroke: black;marker-end : url(#ArrowObstructionLine); "/></g><g id="1222872673472:2993"><polyline fill="none" points="143,171 156,160 " style="stroke: black;"/></g><g id="1222872673472:2932"><polyline fill="none" points="81,251 85,244 " style="stroke: black;"/></g><g id="1222872673472:2822"><polyline fill="none" points="88,291 80,271 " style="stroke: black;marker-end : url(#ArrowResolutionLine); "/></g><g id="1222872673472:3119" xc="290.5" xlink-href="a" yc="237"><g transform="translate(228, 227)"><path d="M 0 0 L 112 0 L 124 19 L 12 19 z" style="fill: rgb(251, 157, 128);stroke-width: 1;stroke: black;"/></g><text x="290.5" y="226.5"><tspan dy="14" text-anchor="middle" x="290.5">AVLSUnavailable</tspan></text></g><g id="1222872673472:3178" xc="455" xlink-href="a" yc="227"><g transform="translate(390, 217)"><path d="M 0 0 L 117 0 L 129 19 L 13 19 z" style="fill: rgb(251, 157, 128);stroke-width: 1;stroke: black;"/></g><text x="455" y="216.5"><tspan dy="14" text-anchor="middle" x="455">TransmissionLost</tspan></text></g><g id="1222872673472:3148" xc="348.5" xlink-href="a" yc="287"><g transform="translate(300, 277)"><path d="M 0 0 L 87 0 L 96 19 L 9 19 z" style="fill: rgb(251, 157, 128);stroke-width: 1;stroke: black;"/></g><text x="348.5" y="276.5"><tspan dy="14" text-anchor="middle" x="348.5">AVLSBroken</tspan></text></g><g id="1222872673472:3180" xc="646.5" xlink-href="a" yc="278"><g transform="translate(605, 269)"><path d="M 0 0 L 74 0 L 82 17 L 8 17 z" style="fill: rgb(251, 157, 128);stroke-width: 1;stroke: black;"/></g><text x="646.5" y="267.5"><tspan dy="14" text-anchor="middle" x="646.5">DeadZone</tspan></text></g><g id="1222872673472:3269" xc="506.5" xlink-href="a" yc="287"><g transform="translate(413, 277)"><path d="M 0 0 L 168 0 L 186 19 L 18 19 z" style="fill: rgb(251, 157, 128);stroke-width: 1;stroke: black;"/></g><text x="506.5" y="276.5"><tspan dy="14" text-anchor="middle" x="506.5">TransmissionDeviceBroken</tspan></text></g><g id="1222872673472:3126"><polyline fill="none" points="238,282 245,275 " style="stroke: black;"/></g><g id="1222872673472:3147"><polyline fill="none" points="336,277 333,274 " style="stroke: black;"/></g><g id="1222872673472:3179"><polyline fill="none" points="612,269 550,251 " style="stroke: black;"/></g><g id="1222872673472:3286"><polyline fill="none" points="497,277 491,270 " style="stroke: black;"/></g><g id="1222872673472:3294"><polyline fill="none" points="622,322 641,287 " style="stroke: black;marker-end : url(#ArrowResolutionLine); "/></g><g id="1222872673472:3343" xc="319" xlink-href="a" yc="177"><g transform="translate(225, 167)"><path d="M 0 0 L 169 0 L 187 19 L 18 19 z" style="fill: rgb(251, 157, 128);stroke-width: 1;stroke: black;"/></g><text x="319" y="166.5"><tspan dy="14" text-anchor="middle" x="319">AmbulancePositionNotSent</tspan></text></g><g id="1222872673472:3340"><polyline fill="none" points="305,167 296,158 " style="stroke: black;"/></g><g id="1222872673472:3351"><polyline fill="none" points="428,217 396,204 " style="stroke: black;"/></g><g id="1222872673472:3347"><polyline fill="none" points="294,227 297,222 " style="stroke: black;"/></g><g id="1222872673472:4671" xc="68.5" xlink-href="a" yc="357"><g transform="translate(15, 347)"><path d="M 53 0 L 106 4 L 106 19 L 0 19 L 0 4 z" style="fill: rgb(196, 181, 218);stroke-width: 1;stroke: black;"/></g><text x="68.5" y="346.5"><tspan dy="14" text-anchor="middle" x="68.5">AVLSAccurate</tspan></text></g><g id="1222872673472:4667"><polyline fill="none" points="72,347 73,344 " style="stroke: black;"/></g><g id="1222872673472:4723" xc="584.5" xlink-href="a" yc="387"><g transform="translate(524, 377)"><path d="M 60 0 L 120 4 L 120 19 L 0 19 L 0 4 z" style="fill: rgb(196, 181, 218);stroke-width: 1;stroke: black;"/></g><text x="584.5" y="376.5"><tspan dy="14" text-anchor="middle" x="584.5">AllZoneCovered</tspan></text></g><g id="1222872673472:4717"><polyline fill="none" points="590,377 592,373 " style="stroke: black;"/></g><g id="1222872673472:5128" xc="389" xlink-href="a" yc="353"><g transform="translate(288, 329)"><path d="M 20 0 L 201 0 L 181 47 L 0 47 z" style="fill: rgb(215, 230, 238);stroke-width: 1;stroke: black;"/></g><text x="389" y="328.5"><tspan dy="14" text-anchor="middle" x="389">Achieve</tspan><tspan dy="14" text-anchor="middle" x="389">[RepairedHardwareWhenHardwar</tspan><tspan dy="14" text-anchor="middle" x="389">eBroken]</tspan></text></g><g id="1222872673472:5137"><polyline fill="none" points="374,329 354,297 " style="stroke: black;marker-end : url(#ArrowResolutionLine); "/></g><g id="1222872673472:5129"><polyline fill="none" points="432,329 488,297 " style="stroke: black;marker-end : url(#ArrowResolutionLine); "/></g><g id="1222872673472:5116" xc="107" xlink-href="a" yc="544"><g transform="translate(4, 513)"><path d="M 20 0 L 205 0 L 185 61 L 0 61 z" style="fill: rgb(246, 222, 63);stroke-width: 3;stroke: black;"/></g><text x="107" y="512.5"><tspan dy="14" text-anchor="middle" x="107">Achieve</tspan><tspan dy="14" text-anchor="middle" x="107">[BrokenAmbulanceAtStationWhen</tspan><tspan dy="14" text-anchor="middle" x="107">AmbulanceHardwareBrokenAndN</tspan><tspan dy="14" text-anchor="middle" x="107">otMobilized]</tspan></text></g><g id="1222872673472:5101" xc="339" xlink-href="a" yc="533"><g transform="translate(234, 509)"><path d="M 21 0 L 209 0 L 189 47 L 0 47 z" style="fill: rgb(246, 222, 63);stroke-width: 3;stroke: black;"/></g><text x="339" y="508.5"><tspan dy="14" text-anchor="middle" x="339">Achieve</tspan><tspan dy="14" text-anchor="middle" x="339">[BrokenAmbulanceRepairedWhenA</tspan><tspan dy="14" text-anchor="middle" x="339">mbulanceAtStation]</tspan></text></g><g id="1222872673472:5121" xc="253" xlink-href="a" yc="451"><g transform="translate(149, 420)"><path d="M 20 0 L 207 0 L 187 61 L 0 61 z" style="fill: rgb(215, 230, 238);stroke-width: 1;stroke: black;"/></g><text x="253" y="419.5"><tspan dy="14" text-anchor="middle" x="253">Achieve</tspan><tspan dy="14" text-anchor="middle" x="253">[RepairedHardwareWhenAmbulan</tspan><tspan dy="14" text-anchor="middle" x="253">ceNotMobilizedAndHardwareBrok</tspan><tspan dy="14" text-anchor="middle" x="253">en]</tspan></text></g><g id="1222872673472:5123" xc="478.5" xlink-href="a" yc="445"><g transform="translate(373, 414)"><path d="M 21 0 L 210 0 L 189 61 L 0 61 z" style="fill: rgb(215, 230, 238);stroke-width: 1;stroke: black;"/></g><text x="478.5" y="420.5"><tspan dy="14" text-anchor="middle" x="478.5">Achieve</tspan><tspan dy="14" text-anchor="middle" x="478.5">[RepairedHardwareWhenAmbulanc</tspan><tspan dy="14" text-anchor="middle" x="478.5">eMobilizedAndHardwareBroken]</tspan></text></g><g id="1222872673472:5133"><polyline fill="none" points="351,420 366,415 " style="stroke: black;"/></g><g id="1222872673472:5135"><polyline fill="none" points="392,419 380,415 " style="stroke: black;"/></g><g id="1222872673472:5136"><polyline fill="none" points="208,519 224,515 " style="stroke: black;"/></g><g id="1222872673472:5124"><polyline fill="none" points="252,517 238,515 " style="stroke: black;"/></g><g id="1222872673472:5127" xc="555" xlink-href="a" yc="536"><g transform="translate(452, 512)"><path d="M 20 0 L 205 0 L 185 47 L 0 47 z" style="fill: rgb(215, 230, 238);stroke-width: 1;stroke: black;"/></g><text x="555" y="511.5"><tspan dy="14" text-anchor="middle" x="555">Achieve</tspan><tspan dy="14" text-anchor="middle" x="555">[AppropriateCareGivenWhenMobi</tspan><tspan dy="14" text-anchor="middle" x="555">lizedAndHardwareBroken]</tspan></text></g><g id="1222872673472:5126"><polyline fill="none" points="443,513 520,498 " style="stroke: black;"/></g><g id="1222872673472:5130" xc="737" xlink-href="a" yc="474"><g transform="translate(633, 450)"><path d="M 20 0 L 207 0 L 187 47 L 0 47 z" style="fill: rgb(246, 222, 63);stroke-width: 3;stroke: black;"/></g><text x="737" y="449.5"><tspan dy="14" text-anchor="middle" x="737">Achieve</tspan><tspan dy="14" text-anchor="middle" x="737">[AmbulanceAtStationWhenApprop</tspan><tspan dy="14" text-anchor="middle" x="737">riateCareGiven]</tspan></text></g><g id="1222872673472:5131"><polyline fill="none" points="538,512 531,503 " style="stroke: black;"/></g><g id="1222872673472:5132"><polyline fill="none" points="638,484 534,497 " style="stroke: black;"/></g><g id="1222872673472:5205" xc="212" xlink-href="a" yc="339"><g transform="translate(146, 329)"><path d="M 13 0 L 131 0 L 118 19 L 0 19 z" style="fill: rgb(215, 230, 238);stroke-width: 1;stroke: black;"/></g><text x="212" y="328.5"><tspan dy="14" text-anchor="middle" x="212">Avoid[NoSattelite]</tspan></text></g><g id="1222872673472:5200" xc="209.5" xlink-href="a" yc="403"><g transform="translate(151, 393)"><path d="M 58 0 L 116 4 L 116 19 L 0 19 L 0 4 z" style="fill: rgb(196, 181, 218);stroke-width: 1;stroke: black;"/></g><text x="209.5" y="392.5"><tspan dy="14" text-anchor="middle" x="209.5">AlwaysSattelite</tspan></text></g><g id="1222872673472:5206"><polyline fill="none" points="215,329 224,302 " style="stroke: black;marker-end : url(#ArrowResolutionLine); "/></g><g id="1222872673472:5203"><polyline fill="none" points="210,393 210,386 " style="stroke: black;"/></g><g id="1222872673472:2994"><polyline fill="none" points="168,152 196,132 " style="stroke: black;marker-end : url(#ArrowO_RefinementDefaultAndOrRepresentation); "/><ellipse cx="162.5" cy="157" rx="7.5" ry="8" style="stroke: black; fill: rgb(251, 157, 128); stroke-width: 1"/></g><g id="1222872673472:2945"><polyline fill="none" points="91,232 104,211 " style="stroke: black;marker-end : url(#ArrowO_RefinementDefaultAndOrRepresentation); "/><ellipse cx="88.5" cy="239" rx="7.5" ry="8" style="stroke: black; fill: rgb(251, 157, 128); stroke-width: 1"/></g><g id="1222872673472:3167"><polyline fill="none" points="256,267 278,247 " style="stroke: black;marker-end : url(#ArrowO_RefinementDefaultAndOrRepresentation); "/><ellipse cx="251.5" cy="271.5" rx="7.5" ry="7.5" style="stroke: black; fill: rgb(251, 157, 128); stroke-width: 1"/></g><g id="1222872673472:3149"><polyline fill="none" points="321,264 301,247 " style="stroke: black;marker-end : url(#ArrowO_RefinementDefaultAndOrRepresentation); "/><ellipse cx="327.5" cy="269.5" rx="7.5" ry="7.5" style="stroke: black; fill: rgb(251, 157, 128); stroke-width: 1"/></g><g id="1222872673472:3132"><polyline fill="none" points="536,249 493,237 " style="stroke: black;marker-end : url(#ArrowO_RefinementDefaultAndOrRepresentation); "/><ellipse cx="543.5" cy="250.5" rx="7.5" ry="7.5" style="stroke: black; fill: rgb(251, 157, 128); stroke-width: 1"/></g><g id="1222872673472:3287"><polyline fill="none" points="481,258 463,237 " style="stroke: black;marker-end : url(#ArrowO_RefinementDefaultAndOrRepresentation); "/><ellipse cx="486.5" cy="264.5" rx="7.5" ry="7.5" style="stroke: black; fill: rgb(251, 157, 128); stroke-width: 1"/></g><g id="1222872673472:3339"><polyline fill="none" points="284,150 260,132 " style="stroke: black;marker-end : url(#ArrowO_RefinementDefaultAndOrRepresentation); "/><ellipse cx="290.5" cy="155" rx="7.5" ry="8" style="stroke: black; fill: rgb(251, 157, 128); stroke-width: 1"/></g><g id="1222872673472:3352"><polyline fill="none" points="382,200 347,187 " style="stroke: black;marker-end : url(#ArrowO_RefinementDefaultAndOrRepresentation); "/><ellipse cx="389.5" cy="202.5" rx="7.5" ry="7.5" style="stroke: black; fill: rgb(251, 157, 128); stroke-width: 1"/></g><g id="1222872673472:3363"><polyline fill="none" points="303,208 314,187 " style="stroke: black;marker-end : url(#ArrowO_RefinementDefaultAndOrRepresentation); "/><ellipse cx="300.5" cy="215.5" rx="7.5" ry="7.5" style="stroke: black; fill: rgb(251, 157, 128); stroke-width: 1"/></g><g id="1222872673472:4670"><polyline fill="none" points="78,330 88,311 " style="stroke: black;marker-end : url(#ArrowRefinementDefaultAndOrRepresentation); "/><ellipse cx="76.5" cy="337.5" rx="7.5" ry="7.5" style="stroke: black; fill: rgb(246, 222, 63); stroke-width: 1"/></g><g id="1222872673472:4721"><polyline fill="none" points="599,361 611,342 " style="stroke: black;marker-end : url(#ArrowRefinementDefaultAndOrRepresentation); "/><ellipse cx="596.5" cy="367.5" rx="7.5" ry="7.5" style="stroke: black; fill: rgb(246, 222, 63); stroke-width: 1"/></g><g id="1222872673472:5106"><polyline fill="none" points="374,406 383,377 " style="stroke: black;marker-end : url(#ArrowRefinementDefaultAndOrRepresentation); "/><ellipse cx="373.5" cy="413.5" rx="7.5" ry="7.5" style="stroke: black; fill: rgb(246, 222, 63); stroke-width: 1"/></g><g id="1222872673472:5134"><polyline fill="none" points="233,507 242,482 " style="stroke: black;marker-end : url(#ArrowRefinementDefaultAndOrRepresentation); "/><ellipse cx="231.5" cy="514.5" rx="7.5" ry="7.5" style="stroke: black; fill: rgb(246, 222, 63); stroke-width: 1"/></g><g id="1222872673472:5125"><polyline fill="none" points="523,492 507,476 " style="stroke: black;marker-end : url(#ArrowRefinementDefaultAndOrRepresentation); "/><ellipse cx="527.5" cy="497.5" rx="7.5" ry="7.5" style="stroke: black; fill: rgb(246, 222, 63); stroke-width: 1"/></g><g id="1222872673472:5204"><polyline fill="none" points="210,372 212,349 " style="stroke: black;marker-end : url(#ArrowRefinementDefaultAndOrRepresentation); "/><ellipse cx="210.5" cy="379.5" rx="7.5" ry="7.5" style="stroke: black; fill: rgb(246, 222, 63); stroke-width: 1"/></g></g></svg>