<?xml version="1.0" encoding="ISO-8859-1"?>
<svg height="10cm" id="svg-root" preserveAspectRatio="xMidYMid meet" viewBox="4 6 789 531" width="165.09999999999997mm" xmlns="http://www.w3.org/2000/svg" xmlns:java="http://xml.apache.org/xslt/java" xmlns:xlink="http://www.w3.org/1999/xlink"><title>AccurateAmbulancePositionRecordedWhenAccurateAmbulancePositionSent</title><style type="text/css">line {stroke: #000000; stroke-width: 0.75;}</style><style type="text/css">text {  
        font-family:Arial, Helvetica, Geneva, sans serif;
        font-size:10;
        text-anchor:middle;
        fill:black;
        font-weight:bold;
        stroke-width:5;
      }</style><style media="print" type="text/css">.background {fill:#FFFFFF;}</style><style media="screen" type="text/css">.background {fill:#3384ad;}</style><radialGradient cx=".5" cy=".5" fx=".5" fy=".5" gradientUnits="objectBoundingBox" id="focusserGradient" r=".5"><stop offset="0.0225" style="stop-color:#FFFFFF"/><stop offset="0.0794" style="stop-color:#FBFEF7"/><stop offset="0.1685" style="stop-color:#F1FBE1"/><stop offset="0.2784" style="stop-color:#E1F5BC"/><stop offset="0.4038" style="stop-color:#CAEE8B"/><stop offset="0.4551" style="stop-color:#C0EB74"/><stop offset="1" style="stop-color:#006699"/></radialGradient><defs><marker id="ArrowControlLine" markerHeight="30" markerUnits="userSpaceOnUse" markerWidth="30" orient="auto" style="stroke: black; stroke-width: 2;fill: rgb(0, 0, 0);" viewBox="-40 -25 80 50"><path d="M 0 0 L -30 15 L -30 -15 z"/></marker><marker id="ArrowObstructionLine" markerHeight="60" markerUnits="userSpaceOnUse" markerWidth="60" orient="auto" style="stroke: black; stroke-width: 2.5;fill: rgb(251, 157, 128);" viewBox="-80 -50 160 100"><path d="M -50 15 L -50 -15 L -49 -15 L -49 15 M 0 0 L -30 15 L -23 0 L -30 -15 L 0 0 z"/></marker><marker id="ArrowDocumentationLine" markerHeight="30" markerUnits="userSpaceOnUse" markerWidth="30" orient="auto" style="stroke: black; stroke-width: 2;fill: rgb(0, 0, 0);" viewBox="-40 -25 80 50"><path d="M 0 0 L -30 15 L -30 -15 z"/></marker><marker class="background" id="ArrowIsALine" markerHeight="30" markerUnits="userSpaceOnUse" markerWidth="30" orient="auto" style="stroke: black; stroke-width: 2.5;" viewBox="-40 -25 80 50"><path d="M 0 0 L -30 15 L -30 -15 z" style="fill:white"/><path class="background" d="M 0 0 L -30 15 L -30 -15 z" id="background_ARROW_ISA" style="visibility:hidden"/></marker><marker id="ArrowPerformanceLine" markerHeight="30" markerUnits="userSpaceOnUse" markerWidth="30" orient="auto" style="stroke: black; stroke-width: 2;fill: rgb(0, 0, 0);" viewBox="-40 -25 80 50"><path d="M 0 0 L -30 15 L -30 -15 z"/></marker><marker id="ArrowMonitoringAgentLineUseCaseViewType" markerHeight="30" markerUnits="userSpaceOnUse" markerWidth="30" orient="auto" style="stroke: black; stroke-width: 2;fill: rgb(0, 0, 0);" viewBox="-40 -25 80 50"><path d="M 0 0 L -30 15 L -30 -15 z"/></marker><marker id="ArrowInputLine" markerHeight="30" markerUnits="userSpaceOnUse" markerWidth="30" orient="auto" style="stroke: black; stroke-width: 2;fill: rgb(0, 0, 0);" viewBox="-40 -25 80 50"><path d="M 0 0 L -30 15 L -30 -15 z"/></marker><marker id="ArrowConcernsLine" markerHeight="30" markerUnits="userSpaceOnUse" markerWidth="30" orient="auto" style="stroke: black; stroke-width: 2;fill: rgb(0, 0, 0);" viewBox="-40 -25 80 50"><path d="M 0 0 L -30 15 L -30 -15 z"/></marker><marker id="ArrowCauseLine" markerHeight="30" markerUnits="userSpaceOnUse" markerWidth="30" orient="auto" style="stroke: black; stroke-width: 2;fill: rgb(0, 0, 0);" viewBox="-40 -25 80 50"><path d="M 0 0 L -30 15 L -30 -15 z"/></marker><marker id="ArrowConflictLine" markerUnits="userSpaceOnUse" orient="auto" style="stroke: black; stroke-width: 2;fill: rgb(255, 0, 0);"/><marker id="ArrowMonitoringLine" markerHeight="30" markerUnits="userSpaceOnUse" markerWidth="30" orient="auto" style="stroke: black; stroke-width: 2;fill: rgb(0, 0, 0);" viewBox="-40 -25 80 50"><path d="M 0 0 L -30 15 L -30 -15 z"/></marker><marker id="ArrowIncludeLineUseCaseViewType" markerHeight="30" markerUnits="userSpaceOnUse" markerWidth="30" orient="auto" style="stroke: black; stroke-width: 2;fill: rgb(0, 0, 0);" viewBox="-40 -25 80 50"><path d="M 0 0 L -30 15 L -30 -15 z"/></marker><marker id="ArrowOutputLine" markerHeight="30" markerUnits="userSpaceOnUse" markerWidth="30" orient="auto" style="stroke: black; stroke-width: 2;fill: rgb(0, 0, 0);" viewBox="-40 -25 80 50"><path d="M 0 0 L -30 15 L -30 -15 z"/></marker><marker id="ArrowControlOperationLineUseCaseViewType" markerHeight="30" markerUnits="userSpaceOnUse" markerWidth="30" orient="auto" style="stroke: black; stroke-width: 2;fill: rgb(0, 0, 0);" viewBox="-40 -25 80 50"><path d="M 0 0 L -30 15 L -30 -15 z"/></marker><marker id="ArrowResolutionLine" markerHeight="60" markerUnits="userSpaceOnUse" markerWidth="60" orient="auto" style="stroke: black; stroke-width: 2.5;fill: rgb(153, 255, 153);" viewBox="-80 -50 160 100"><path d="M -50 15 L -50 -15 L -49 -15 L -49 15 M 0 0 L -30 15 L -23 0 L -30 -15 L 0 0 z"/></marker><marker id="ArrowConflictLine" markerUnits="userSpaceOnUse" orient="auto" style="stroke: black; stroke-width: 2;fill: rgb(255, 0, 0);"/><marker id="ArrowRefinementDefaultAndOrRepresentation" markerHeight="30" markerUnits="userSpaceOnUse" markerWidth="30" orient="auto" style="stroke: black; stroke-width: 2;fill: rgb(246, 222, 63);" viewBox="-40 -25 80 50"><path d="M 0 0 L -30 15 L -23 0 L -30 -15 z"/></marker><marker id="ArrowOperationalizationDefaultAndOrRepresentation" markerHeight="30" markerUnits="userSpaceOnUse" markerWidth="30" orient="auto" style="stroke: black; stroke-width: 2;fill: rgb(102, 153, 255);" viewBox="-40 -25 80 50"><path d="M 0 0 L -30 15 L -23 0 L -30 -15 z"/></marker><marker id="ArrowAssignmentDefaultAndOrRepresentation" markerHeight="30" markerUnits="userSpaceOnUse" markerWidth="30" orient="auto" style="stroke: black; stroke-width: 2;fill: rgb(255, 163, 195);" viewBox="-40 -25 80 50"><path d="M 0 0 L -30 15 L -23 0 L -30 -15 z"/></marker><marker id="ArrowO_RefinementDefaultAndOrRepresentation" markerHeight="30" markerUnits="userSpaceOnUse" markerWidth="30" orient="auto" style="stroke: black; stroke-width: 2;fill: rgb(251, 157, 128);" viewBox="-40 -25 80 50"><path d="M 0 0 L -30 15 L -23 0 L -30 -15 z"/></marker><marker id="ArrowResponsibilityDefaultAndOrRepresentation" markerHeight="30" markerUnits="userSpaceOnUse" markerWidth="30" orient="auto" style="stroke: black; stroke-width: 2;fill: rgb(204, 0, 0);" viewBox="-40 -25 80 50"><path d="M 0 0 L -30 15 L -23 0 L -30 -15 z"/></marker><marker id="SignStopLine" markerHeight="40" markerUnits="userSpaceOnUse" markerWidth="40" orient="auto" style="fill:#FF0033; stroke:white; stroke-width:2;" viewBox="-50 -50 100 100"><path d="M 20 0 L 10 15 L -10 15 L -20 0 L -10 -15 L 10 -15 z"/><text style="font-size:11; fill:white; stroke-width:0.1;" x="0" y="4">STOP</text></marker><marker id="SignConflictLine" markerHeight="60" markerUnits="userSpaceOnUse" markerWidth="30" orient="auto" style="fill:#FF0000; stroke:black; stroke-width:2;" viewBox="-45 -60 90 120"><path d="M 9 -38.7 L -5.3 -2.7 L 16.7 -8.3 L -15.6 38.7 L 1.7 1.7 L -20 7.3 z"/></marker><marker id="ArrowAggregation" markerHeight="60" markerWidth="60" orient="auto" viewBox="-80 -50 160 100"><path d="M 0 0 L 30 15 L 60 0 L 30 -15 z" style="stroke: black; fill:white; stroke-width: 2.5;"/><path class="background" d="M 0 0 L 30 15 L 60 0 L 30 -15 z" id="background_ARROW_AGGREGATION" style="visibility:hidden; stroke: black; stroke-width: 2.5;"/></marker><marker id="ArrowComposition" markerHeight="60" markerWidth="60" orient="auto" viewBox="-80 -50 160 100"><path d="M 0 0 L 30 15 L 60 0 L 30 -15 z"/></marker><marker id="ArrowAssociationDirected" markerHeight="30" markerWidth="30" orient="auto" style="stroke : black; fill: none; stroke-width: 2.5;" viewBox="-40 -25 80 50"><path d="M -30 15 L 0 0 L -30 -15"/></marker><g id="IssueMark" transform="scale(0.45, 0.45)"><g style="fill-rule:nonzero;clip-rule:nonzero;stroke:#000000;stroke-miterlimit:4;"><g><radialGradient cx="5.4365" cy="5.127" fx="5.4365" fy="5.127" gradientUnits="userSpaceOnUse" id="aigrd1" r="5.2803"><stop offset="0" style="stop-color:#FFFFFF"/><stop offset="1" style="stop-color:#99CCCC"/></radialGradient><path d="M15.1055,7.5532c0,4.1714-3.3809,7.5532-7.5527,7.5532S0,11.7246,0,7.5532S3.3809,0,7.5527,0s7.5527,3.3818,7.5527,7.5532z" style="fill:url(#aigrd1);stroke:none;"/></g></g><g style="fill-rule:nonzero;clip-rule:nonzero;stroke:#000000;stroke-miterlimit:4;"><path d="M7.0908,9.2915C7.0742,8.9873,7.0586,8.7632,7.0586,8.5874c0-1.4082,1.2002-1.9199,1.2002-3.9521c0-0.6719-0.1279-2.0957-1.376-2.0957c-0.1445,0-0.9443,0.0479-0.9443,0.6396c0,0.48,0.5918,0.4961,0.5918,1.2803          c0,0.832-0.6563,1.0239-0.9756,1.0239c-0.8164,0-1.1201-0.6719-1.1201-1.2319c0-0.6563,0.4795-2.2881,3.1035-2.2881c0.4961,0,3.1045,0.1763,3.1045,2.7202c0,1.0239-0.6563,1.792-1.5039,2.3198C8.3389,7.4995,7.9229,7.7393,7.7305,8.1392          c-0.1279,0.2563-0.1602,0.624-0.1602,1.1523H7.0908z M7.3467,10.4912c0.7354,0,1.3438,0.624,1.3438,1.3604c0,0.7676-0.6084,1.3438-1.3438,1.3438c-0.7686,0-1.3604-0.5918-1.3604-1.3438c0-0.7202,0.5918-1.3604,1.3604-1.3604z" style="stroke:none;"/></g></g><g id="InfoMark" transform="scale(0.45, 0.45)"><g style="fill-rule:nonzero;clip-rule:nonzero;stroke:#000000;stroke-miterlimit:4"><g><radialGradient cx="5.4365" cy="7.0996" fx="5.4365" fy="7.0996" gradientUnits="userSpaceOnUse" id="aigrd1" r="5.2803"><stop offset="0" style="stop-color:#FFFFFF"/><stop offset="1" style="stop-color:#99CCCC"/></radialGradient><path d="M15.1055,9.5259c0,4.1714-3.3809,7.5532-7.5527,7.5532S0,13.6973,0,9.5259s3.3809-7.5532,7.5527-7.5532s7.5527,3.3818,7.5527,7.5532z" style="fill:url(#aigrd1);stroke:none;"/></g><path d="M9.8125,14.4556H5.9883v-0.3838c0.5762-0.144,0.8477-0.1924,0.8477-0.9604V8.4077c0-0.7202-0.2393-0.832-0.8477-0.9438V7.0796h3.0723v6.0801c0,0.4961,0.1279,0.8481,0.752,0.9121v0.3838z M7.9404,3.3999          c0.6875,0,1.2324,0.5596,1.2324,1.2476c0,0.7041-0.5449,1.2324-1.2324,1.2324c-0.7363,0-1.248-0.5444-1.248-1.2324c0-0.6719,0.5283-1.2476,1.248-1.2476z" style="stroke:none;"/></g><g style="display:none;fill-rule:nonzero;clip-rule:nonzero;stroke:#000000;stroke-miterlimit:4;"><text style="stroke:none;" transform="matrix(1 0 0 1 3.5225 14.96)"><tspan style="stroke:none; font-family:'Times-Bold; serif'; font-size:16;" x="0" y="0">?</tspan></text></g></g></defs><rect class="background" height="10000" id="svgBackground" style="visibility:hidden;" width="10000" x="-5000" y="-5000"/><g id="1222872673472:4119"><g id="1222872673472:2755" xc="447" xlink-href="a" yc="286"><g transform="translate(344, 275)"><path d="M 0 0 L 185 0 L 205 21 L 20 21 z" style="fill: rgb(251, 157, 128);stroke-width: 1;stroke: black;"/></g><text x="447" y="275.5"><tspan dy="14" text-anchor="middle" x="447">AmbulancePositionOutOfDate</tspan></text></g><g id="1222872673472:2753" xc="297" xlink-href="a" yc="341.5"><g transform="translate(227, 331)"><path d="M 0 0 L 126 0 L 139 20 L 14 20 z" style="fill: rgb(251, 157, 128);stroke-width: 1;stroke: black;"/></g><text x="297" y="331"><tspan dy="14" text-anchor="middle" x="297">TransmissionDelay</tspan></text></g><g id="1222872673472:2955"><polyline fill="none" points="325,331 366,315 " style="stroke: black;"/></g><g id="1222872673472:2750" xc="453" xlink-href="a" yc="412"><g transform="translate(330, 394)"><path d="M 24 0 L 245 0 L 221 35 L 0 35 z" style="fill: rgb(215, 230, 238);stroke-width: 1;stroke: black;"/></g><text x="453" y="401.5"><tspan dy="14" text-anchor="middle" x="453">Maintain[HighTransmissionFrequency]</tspan></text></g><g id="1222872673472:3223" xc="468" xlink-href="a" yc="342"><g transform="translate(362, 331)"><path d="M 0 0 L 190 0 L 211 21 L 21 21 z" style="fill: rgb(251, 157, 128);stroke-width: 1;stroke: black;"/></g><text x="468" y="331.5"><tspan dy="14" text-anchor="middle" x="468">TransmissionFrequencyTooLow</tspan></text></g><g id="1222872673472:3282"><polyline fill="none" points="457,394 465,353 " style="stroke: black;marker-end : url(#ArrowResolutionLine); "/></g><g id="1222872673472:3285"><polyline fill="none" points="463,331 462,329 " style="stroke: black;"/></g><g id="1222872673472:1860" xc="519" xlink-href="a" yc="40.5"><g transform="translate(416, 9)"><path d="M 20 0 L 205 0 L 185 62 L 0 62 z" style="fill: rgb(215, 230, 238);stroke-width: 3;stroke: black;"/></g><text x="519" y="9"><tspan dy="14" text-anchor="middle" x="519">Achieve</tspan><tspan dy="14" text-anchor="middle" x="519">[AccurateAmbulancePositionReco</tspan><tspan dy="14" text-anchor="middle" x="519">rdedWhenAccurateAmbulancePos</tspan><tspan dy="14" text-anchor="middle" x="519">itionSent]</tspan></text></g><g id="1222872673472:3385" xc="537" xlink-href="a" yc="130.5"><g transform="translate(434, 99)"><path d="M 0 0 L 185 0 L 205 62 L 20 62 z" style="fill: rgb(251, 157, 128);stroke-width: 1;stroke: black;"/></g><text x="537" y="99"><tspan dy="14" text-anchor="middle" x="537">Not</tspan><tspan dy="14" text-anchor="middle" x="537">[AccurateAmbulancePositionReco</tspan><tspan dy="14" text-anchor="middle" x="537">rdedWhenAccurateAmbulancePos</tspan><tspan dy="14" text-anchor="middle" x="537">itionSent]</tspan></text></g><g id="1222872673472:3411"><polyline fill="none" points="530,99 525,72 " style="stroke: black;marker-end : url(#ArrowObstructionLine); "/></g><g id="1222872673472:3387" xc="423" xlink-href="a" yc="216.5"><g transform="translate(317, 199)"><path d="M 0 0 L 190 0 L 211 34 L 21 34 z" style="fill: rgb(251, 157, 128);stroke-width: 1;stroke: black;"/></g><text x="423" y="199"><tspan dy="14" text-anchor="middle" x="423">InaccurateAmbulancePositionReco</tspan><tspan dy="14" text-anchor="middle" x="423">rded</tspan></text></g><g id="1222872673472:3422"><polyline fill="none" points="442,275 440,270 " style="stroke: black;"/></g><g id="1222872673472:3386"><polyline fill="none" points="445,199 456,190 " style="stroke: black;"/></g><g id="1222872673472:3396" xc="628" xlink-href="a" yc="216.5"><g transform="translate(523, 199)"><path d="M 0 0 L 189 0 L 209 34 L 21 34 z" style="fill: rgb(251, 157, 128);stroke-width: 1;stroke: black;"/></g><text x="628" y="206"><tspan dy="14" text-anchor="middle" x="628">AmbulancePositionNotRecorded</tspan></text></g><g id="1222872673472:3405"><polyline fill="none" points="609,199 603,192 " style="stroke: black;"/></g><g id="1222872673472:3434" xc="622" xlink-href="a" yc="282"><g transform="translate(548, 272)"><path d="M 0 0 L 133 0 L 147 19 L 14 19 z" style="fill: rgb(251, 157, 128);stroke-width: 1;stroke: black;"/></g><text x="622" y="271.5"><tspan dy="14" text-anchor="middle" x="622">NoMemorySpaceFree</tspan></text></g><g id="1222872673472:3433"><polyline fill="none" points="622,272 623,268 " style="stroke: black;"/></g><g id="1222872673472:4110" xc="692.5" xlink-href="a" yc="342"><g transform="translate(595, 332)"><path d="M 19 0 L 194 0 L 175 19 L 0 19 z" style="fill: rgb(215, 230, 238);stroke-width: 1;stroke: black;"/></g><text x="692.5" y="331.5"><tspan dy="14" text-anchor="middle" x="692.5">Maintain[MemorySpaceFree]</tspan></text></g><g id="1222872673472:4046"><polyline fill="none" points="680,332 633,292 " style="stroke: black;marker-end : url(#ArrowResolutionLine); "/></g><g id="1222872673472:4840" xc="687.5" xlink-href="a" yc="401"><g transform="translate(596, 391)"><path d="M 91 0 L 182 4 L 182 19 L 0 19 L 0 4 z" style="fill: rgb(196, 181, 218);stroke-width: 1;stroke: black;"/></g><text x="687.5" y="390.5"><tspan dy="14" text-anchor="middle" x="687.5">Always[MemorySpaceFree]</tspan></text></g><g id="1222872673472:4838"><polyline fill="none" points="688,391 688,387 " style="stroke: black;"/></g><g id="1222872673472:4863" xc="523" xlink-href="a" yc="488"><g transform="translate(423, 471)"><path d="M 100 0 L 199 6 L 199 33 L 0 33 L 0 6 z" style="fill: rgb(196, 181, 218);stroke-width: 1;stroke: black;"/></g><text x="523" y="470.5"><tspan dy="14" text-anchor="middle" x="523">Always</tspan><tspan dy="14" text-anchor="middle" x="523">[HighTransmissionFrequency]</tspan></text></g><g id="1222872673472:4860"><polyline fill="none" points="507,471 499,463 " style="stroke: black;"/></g><g id="1222872673472:4861" xc="246.5" xlink-href="a" yc="401"><g transform="translate(163, 391)"><path d="M 16 0 L 166 0 L 150 19 L 0 19 z" style="fill: rgb(215, 230, 238);stroke-width: 1;stroke: black;"/></g><text x="246.5" y="390.5"><tspan dy="14" text-anchor="middle" x="246.5">Maintain[PacketsOrder]</tspan></text></g><g id="1222872673472:4862"><polyline fill="none" points="255,391 288,352 " style="stroke: black;marker-end : url(#ArrowResolutionLine); "/></g><g id="1222872673472:4903" xc="112.5" xlink-href="a" yc="510"><g transform="translate(7, 486)"><path d="M 21 0 L 210 0 L 189 47 L 0 47 z" style="fill: rgb(215, 230, 238);stroke-width: 3;stroke: black;"/></g><text x="112.5" y="485.5"><tspan dy="14" text-anchor="middle" x="112.5">Achieve</tspan><tspan dy="14" text-anchor="middle" x="112.5">[PacketDiscardedWhenOlderThanL</tspan><tspan dy="14" text-anchor="middle" x="112.5">astRecordedPacket]</tspan></text></g><g id="1222872673472:4907"><polyline fill="none" points="161,486 223,455 " style="stroke: black;"/></g><g id="1222872673472:4893" xc="315" xlink-href="a" yc="502"><g transform="translate(210, 471)"><path d="M 21 0 L 209 0 L 189 61 L 0 61 z" style="fill: rgb(215, 230, 238);stroke-width: 3;stroke: black;"/></g><text x="315" y="477.5"><tspan dy="14" text-anchor="middle" x="315">Achieve</tspan><tspan dy="14" text-anchor="middle" x="315">[PacketRecordedWhenNewerThanL</tspan><tspan dy="14" text-anchor="middle" x="315">astRecordedPacketOrFirstPacket]</tspan></text></g><g id="1222872673472:5094"><polyline fill="none" points="262,471 236,455 " style="stroke: black;"/></g><g id="1222872673472:2971"><polyline fill="none" points="380,311 416,297 " style="stroke: black;marker-end : url(#ArrowO_RefinementDefaultAndOrRepresentation); "/><ellipse cx="373.5" cy="313.5" rx="7.5" ry="7.5" style="stroke: black; fill: rgb(251, 157, 128); stroke-width: 1"/></g><g id="1222872673472:3237"><polyline fill="none" points="458,315 450,297 " style="stroke: black;marker-end : url(#ArrowO_RefinementDefaultAndOrRepresentation); "/><ellipse cx="460.5" cy="322.5" rx="7.5" ry="7.5" style="stroke: black; fill: rgb(251, 157, 128); stroke-width: 1"/></g><g id="1222872673472:3423"><polyline fill="none" points="436,256 428,234 " style="stroke: black;marker-end : url(#ArrowO_RefinementDefaultAndOrRepresentation); "/><ellipse cx="438.5" cy="263.5" rx="7.5" ry="7.5" style="stroke: black; fill: rgb(251, 157, 128); stroke-width: 1"/></g><g id="1222872673472:3384"><polyline fill="none" points="468,182 494,162 " style="stroke: black;marker-end : url(#ArrowO_RefinementDefaultAndOrRepresentation); "/><ellipse cx="462.5" cy="186.5" rx="7.5" ry="7.5" style="stroke: black; fill: rgb(251, 157, 128); stroke-width: 1"/></g><g id="1222872673472:3404"><polyline fill="none" points="593,184 570,162 " style="stroke: black;marker-end : url(#ArrowO_RefinementDefaultAndOrRepresentation); "/><ellipse cx="598.5" cy="188.5" rx="7.5" ry="7.5" style="stroke: black; fill: rgb(251, 157, 128); stroke-width: 1"/></g><g id="1222872673472:3432"><polyline fill="none" points="624,254 626,234 " style="stroke: black;marker-end : url(#ArrowO_RefinementDefaultAndOrRepresentation); "/><ellipse cx="624.5" cy="261.5" rx="7.5" ry="7.5" style="stroke: black; fill: rgb(251, 157, 128); stroke-width: 1"/></g><g id="1222872673472:4841"><polyline fill="none" points="689,373 691,352 " style="stroke: black;marker-end : url(#ArrowRefinementDefaultAndOrRepresentation); "/><ellipse cx="689.5" cy="380.5" rx="7.5" ry="7.5" style="stroke: black; fill: rgb(246, 222, 63); stroke-width: 1"/></g><g id="1222872673472:4859"><polyline fill="none" points="491,453 469,430 " style="stroke: black;marker-end : url(#ArrowRefinementDefaultAndOrRepresentation); "/><ellipse cx="495.5" cy="458.5" rx="7.5" ry="7.5" style="stroke: black; fill: rgb(246, 222, 63); stroke-width: 1"/></g><g id="1222872673472:4906"><polyline fill="none" points="232,445 243,411 " style="stroke: black;marker-end : url(#ArrowRefinementDefaultAndOrRepresentation); "/><ellipse cx="230.5" cy="452.5" rx="7.5" ry="7.5" style="stroke: black; fill: rgb(246, 222, 63); stroke-width: 1"/></g></g></svg>