<?xml version="1.0" encoding="ISO-8859-1"?>
<svg height="10cm" id="svg-root" preserveAspectRatio="xMidYMid meet" viewBox="-3 -1 917 560" width="165.09999999999997mm" xmlns="http://www.w3.org/2000/svg" xmlns:java="http://xml.apache.org/xslt/java" xmlns:xlink="http://www.w3.org/1999/xlink"><title>AmbulanceOnSceneWhenAmbulanceMobilized</title><style type="text/css">line {stroke: #000000; stroke-width: 0.75;}</style><style type="text/css">text {  
        font-family:Arial, Helvetica, Geneva, sans serif;
        font-size:10;
        text-anchor:middle;
        fill:black;
        font-weight:bold;
        stroke-width:5;
      }</style><style media="print" type="text/css">.background {fill:#FFFFFF;}</style><style media="screen" type="text/css">.background {fill:#3384ad;}</style><radialGradient cx=".5" cy=".5" fx=".5" fy=".5" gradientUnits="objectBoundingBox" id="focusserGradient" r=".5"><stop offset="0.0225" style="stop-color:#FFFFFF"/><stop offset="0.0794" style="stop-color:#FBFEF7"/><stop offset="0.1685" style="stop-color:#F1FBE1"/><stop offset="0.2784" style="stop-color:#E1F5BC"/><stop offset="0.4038" style="stop-color:#CAEE8B"/><stop offset="0.4551" style="stop-color:#C0EB74"/><stop offset="1" style="stop-color:#006699"/></radialGradient><defs><marker id="ArrowControlLine" markerHeight="30" markerUnits="userSpaceOnUse" markerWidth="30" orient="auto" style="stroke: black; stroke-width: 2;fill: rgb(0, 0, 0);" viewBox="-40 -25 80 50"><path d="M 0 0 L -30 15 L -30 -15 z"/></marker><marker id="ArrowObstructionLine" markerHeight="60" markerUnits="userSpaceOnUse" markerWidth="60" orient="auto" style="stroke: black; stroke-width: 2.5;fill: rgb(251, 157, 128);" viewBox="-80 -50 160 100"><path d="M -50 15 L -50 -15 L -49 -15 L -49 15 M 0 0 L -30 15 L -23 0 L -30 -15 L 0 0 z"/></marker><marker id="ArrowDocumentationLine" markerHeight="30" markerUnits="userSpaceOnUse" markerWidth="30" orient="auto" style="stroke: black; stroke-width: 2;fill: rgb(0, 0, 0);" viewBox="-40 -25 80 50"><path d="M 0 0 L -30 15 L -30 -15 z"/></marker><marker class="background" id="ArrowIsALine" markerHeight="30" markerUnits="userSpaceOnUse" markerWidth="30" orient="auto" style="stroke: black; stroke-width: 2.5;" viewBox="-40 -25 80 50"><path d="M 0 0 L -30 15 L -30 -15 z" style="fill:white"/><path class="background" d="M 0 0 L -30 15 L -30 -15 z" id="background_ARROW_ISA" style="visibility:hidden"/></marker><marker id="ArrowPerformanceLine" markerHeight="30" markerUnits="userSpaceOnUse" markerWidth="30" orient="auto" style="stroke: black; stroke-width: 2;fill: rgb(0, 0, 0);" viewBox="-40 -25 80 50"><path d="M 0 0 L -30 15 L -30 -15 z"/></marker><marker id="ArrowMonitoringAgentLineUseCaseViewType" markerHeight="30" markerUnits="userSpaceOnUse" markerWidth="30" orient="auto" style="stroke: black; stroke-width: 2;fill: rgb(0, 0, 0);" viewBox="-40 -25 80 50"><path d="M 0 0 L -30 15 L -30 -15 z"/></marker><marker id="ArrowInputLine" markerHeight="30" markerUnits="userSpaceOnUse" markerWidth="30" orient="auto" style="stroke: black; stroke-width: 2;fill: rgb(0, 0, 0);" viewBox="-40 -25 80 50"><path d="M 0 0 L -30 15 L -30 -15 z"/></marker><marker id="ArrowConcernsLine" markerHeight="30" markerUnits="userSpaceOnUse" markerWidth="30" orient="auto" style="stroke: black; stroke-width: 2;fill: rgb(0, 0, 0);" viewBox="-40 -25 80 50"><path d="M 0 0 L -30 15 L -30 -15 z"/></marker><marker id="ArrowCauseLine" markerHeight="30" markerUnits="userSpaceOnUse" markerWidth="30" orient="auto" style="stroke: black; stroke-width: 2;fill: rgb(0, 0, 0);" viewBox="-40 -25 80 50"><path d="M 0 0 L -30 15 L -30 -15 z"/></marker><marker id="ArrowConflictLine" markerUnits="userSpaceOnUse" orient="auto" style="stroke: black; stroke-width: 2;fill: rgb(255, 0, 0);"/><marker id="ArrowMonitoringLine" markerHeight="30" markerUnits="userSpaceOnUse" markerWidth="30" orient="auto" style="stroke: black; stroke-width: 2;fill: rgb(0, 0, 0);" viewBox="-40 -25 80 50"><path d="M 0 0 L -30 15 L -30 -15 z"/></marker><marker id="ArrowIncludeLineUseCaseViewType" markerHeight="30" markerUnits="userSpaceOnUse" markerWidth="30" orient="auto" style="stroke: black; stroke-width: 2;fill: rgb(0, 0, 0);" viewBox="-40 -25 80 50"><path d="M 0 0 L -30 15 L -30 -15 z"/></marker><marker id="ArrowOutputLine" markerHeight="30" markerUnits="userSpaceOnUse" markerWidth="30" orient="auto" style="stroke: black; stroke-width: 2;fill: rgb(0, 0, 0);" viewBox="-40 -25 80 50"><path d="M 0 0 L -30 15 L -30 -15 z"/></marker><marker id="ArrowControlOperationLineUseCaseViewType" markerHeight="30" markerUnits="userSpaceOnUse" markerWidth="30" orient="auto" style="stroke: black; stroke-width: 2;fill: rgb(0, 0, 0);" viewBox="-40 -25 80 50"><path d="M 0 0 L -30 15 L -30 -15 z"/></marker><marker id="ArrowResolutionLine" markerHeight="60" markerUnits="userSpaceOnUse" markerWidth="60" orient="auto" style="stroke: black; stroke-width: 2.5;fill: rgb(153, 255, 153);" viewBox="-80 -50 160 100"><path d="M -50 15 L -50 -15 L -49 -15 L -49 15 M 0 0 L -30 15 L -23 0 L -30 -15 L 0 0 z"/></marker><marker id="ArrowConflictLine" markerUnits="userSpaceOnUse" orient="auto" style="stroke: black; stroke-width: 2;fill: rgb(255, 0, 0);"/><marker id="ArrowRefinementDefaultAndOrRepresentation" markerHeight="30" markerUnits="userSpaceOnUse" markerWidth="30" orient="auto" style="stroke: black; stroke-width: 2;fill: rgb(246, 222, 63);" viewBox="-40 -25 80 50"><path d="M 0 0 L -30 15 L -23 0 L -30 -15 z"/></marker><marker id="ArrowOperationalizationDefaultAndOrRepresentation" markerHeight="30" markerUnits="userSpaceOnUse" markerWidth="30" orient="auto" style="stroke: black; stroke-width: 2;fill: rgb(102, 153, 255);" viewBox="-40 -25 80 50"><path d="M 0 0 L -30 15 L -23 0 L -30 -15 z"/></marker><marker id="ArrowAssignmentDefaultAndOrRepresentation" markerHeight="30" markerUnits="userSpaceOnUse" markerWidth="30" orient="auto" style="stroke: black; stroke-width: 2;fill: rgb(255, 163, 195);" viewBox="-40 -25 80 50"><path d="M 0 0 L -30 15 L -23 0 L -30 -15 z"/></marker><marker id="ArrowO_RefinementDefaultAndOrRepresentation" markerHeight="30" markerUnits="userSpaceOnUse" markerWidth="30" orient="auto" style="stroke: black; stroke-width: 2;fill: rgb(251, 157, 128);" viewBox="-40 -25 80 50"><path d="M 0 0 L -30 15 L -23 0 L -30 -15 z"/></marker><marker id="ArrowResponsibilityDefaultAndOrRepresentation" markerHeight="30" markerUnits="userSpaceOnUse" markerWidth="30" orient="auto" style="stroke: black; stroke-width: 2;fill: rgb(204, 0, 0);" viewBox="-40 -25 80 50"><path d="M 0 0 L -30 15 L -23 0 L -30 -15 z"/></marker><marker id="SignStopLine" markerHeight="40" markerUnits="userSpaceOnUse" markerWidth="40" orient="auto" style="fill:#FF0033; stroke:white; stroke-width:2;" viewBox="-50 -50 100 100"><path d="M 20 0 L 10 15 L -10 15 L -20 0 L -10 -15 L 10 -15 z"/><text style="font-size:11; fill:white; stroke-width:0.1;" x="0" y="4">STOP</text></marker><marker id="SignConflictLine" markerHeight="60" markerUnits="userSpaceOnUse" markerWidth="30" orient="auto" style="fill:#FF0000; stroke:black; stroke-width:2;" viewBox="-45 -60 90 120"><path d="M 9 -38.7 L -5.3 -2.7 L 16.7 -8.3 L -15.6 38.7 L 1.7 1.7 L -20 7.3 z"/></marker><marker id="ArrowAggregation" markerHeight="60" markerWidth="60" orient="auto" viewBox="-80 -50 160 100"><path d="M 0 0 L 30 15 L 60 0 L 30 -15 z" style="stroke: black; fill:white; stroke-width: 2.5;"/><path class="background" d="M 0 0 L 30 15 L 60 0 L 30 -15 z" id="background_ARROW_AGGREGATION" style="visibility:hidden; stroke: black; stroke-width: 2.5;"/></marker><marker id="ArrowComposition" markerHeight="60" markerWidth="60" orient="auto" viewBox="-80 -50 160 100"><path d="M 0 0 L 30 15 L 60 0 L 30 -15 z"/></marker><marker id="ArrowAssociationDirected" markerHeight="30" markerWidth="30" orient="auto" style="stroke : black; fill: none; stroke-width: 2.5;" viewBox="-40 -25 80 50"><path d="M -30 15 L 0 0 L -30 -15"/></marker><g id="IssueMark" transform="scale(0.45, 0.45)"><g style="fill-rule:nonzero;clip-rule:nonzero;stroke:#000000;stroke-miterlimit:4;"><g><radialGradient cx="5.4365" cy="5.127" fx="5.4365" fy="5.127" gradientUnits="userSpaceOnUse" id="aigrd1" r="5.2803"><stop offset="0" style="stop-color:#FFFFFF"/><stop offset="1" style="stop-color:#99CCCC"/></radialGradient><path d="M15.1055,7.5532c0,4.1714-3.3809,7.5532-7.5527,7.5532S0,11.7246,0,7.5532S3.3809,0,7.5527,0s7.5527,3.3818,7.5527,7.5532z" style="fill:url(#aigrd1);stroke:none;"/></g></g><g style="fill-rule:nonzero;clip-rule:nonzero;stroke:#000000;stroke-miterlimit:4;"><path d="M7.0908,9.2915C7.0742,8.9873,7.0586,8.7632,7.0586,8.5874c0-1.4082,1.2002-1.9199,1.2002-3.9521c0-0.6719-0.1279-2.0957-1.376-2.0957c-0.1445,0-0.9443,0.0479-0.9443,0.6396c0,0.48,0.5918,0.4961,0.5918,1.2803          c0,0.832-0.6563,1.0239-0.9756,1.0239c-0.8164,0-1.1201-0.6719-1.1201-1.2319c0-0.6563,0.4795-2.2881,3.1035-2.2881c0.4961,0,3.1045,0.1763,3.1045,2.7202c0,1.0239-0.6563,1.792-1.5039,2.3198C8.3389,7.4995,7.9229,7.7393,7.7305,8.1392          c-0.1279,0.2563-0.1602,0.624-0.1602,1.1523H7.0908z M7.3467,10.4912c0.7354,0,1.3438,0.624,1.3438,1.3604c0,0.7676-0.6084,1.3438-1.3438,1.3438c-0.7686,0-1.3604-0.5918-1.3604-1.3438c0-0.7202,0.5918-1.3604,1.3604-1.3604z" style="stroke:none;"/></g></g><g id="InfoMark" transform="scale(0.45, 0.45)"><g style="fill-rule:nonzero;clip-rule:nonzero;stroke:#000000;stroke-miterlimit:4"><g><radialGradient cx="5.4365" cy="7.0996" fx="5.4365" fy="7.0996" gradientUnits="userSpaceOnUse" id="aigrd1" r="5.2803"><stop offset="0" style="stop-color:#FFFFFF"/><stop offset="1" style="stop-color:#99CCCC"/></radialGradient><path d="M15.1055,9.5259c0,4.1714-3.3809,7.5532-7.5527,7.5532S0,13.6973,0,9.5259s3.3809-7.5532,7.5527-7.5532s7.5527,3.3818,7.5527,7.5532z" style="fill:url(#aigrd1);stroke:none;"/></g><path d="M9.8125,14.4556H5.9883v-0.3838c0.5762-0.144,0.8477-0.1924,0.8477-0.9604V8.4077c0-0.7202-0.2393-0.832-0.8477-0.9438V7.0796h3.0723v6.0801c0,0.4961,0.1279,0.8481,0.752,0.9121v0.3838z M7.9404,3.3999          c0.6875,0,1.2324,0.5596,1.2324,1.2476c0,0.7041-0.5449,1.2324-1.2324,1.2324c-0.7363,0-1.248-0.5444-1.248-1.2324c0-0.6719,0.5283-1.2476,1.248-1.2476z" style="stroke:none;"/></g><g style="display:none;fill-rule:nonzero;clip-rule:nonzero;stroke:#000000;stroke-miterlimit:4;"><text style="stroke:none;" transform="matrix(1 0 0 1 3.5225 14.96)"><tspan style="stroke:none; font-family:'Times-Bold; serif'; font-size:16;" x="0" y="0">?</tspan></text></g></g></defs><rect class="background" height="10000" id="svgBackground" style="visibility:hidden;" width="10000" x="-5000" y="-5000"/><g id="1222872673472:4290"><g id="1222872673472:2022" xc="587" xlink-href="a" yc="28"><g transform="translate(484, 2)"><path d="M 20 0 L 205 0 L 185 51 L 0 51 z" style="fill: rgb(246, 222, 63);stroke-width: 3;stroke: black;"/></g><text x="587" y="3.5"><tspan dy="14" text-anchor="middle" x="587">Achieve</tspan><tspan dy="14" text-anchor="middle" x="587">[AmbulanceOnSceneWhenAmbula</tspan><tspan dy="14" text-anchor="middle" x="587">nceMobilized]</tspan></text></g><g id="1222872673472:4276" xc="594" xlink-href="a" yc="102"><g transform="translate(490, 78)"><path d="M 0 0 L 187 0 L 207 47 L 20 47 z" style="fill: rgb(251, 157, 128);stroke-width: 1;stroke: black;"/></g><text x="594" y="77.5"><tspan dy="14" text-anchor="middle" x="594">Not</tspan><tspan dy="14" text-anchor="middle" x="594">[AmbulanceOnSceneWhenAmbula</tspan><tspan dy="14" text-anchor="middle" x="594">nceMobilized]</tspan></text></g><g id="1222872673472:4328"><polyline fill="none" points="591,78 589,54 " style="stroke: black;marker-end : url(#ArrowObstructionLine); "/></g><g id="1222872673472:4303" xc="495" xlink-href="a" yc="170"><g transform="translate(411, 160)"><path d="M 0 0 L 151 0 L 167 19 L 16 19 z" style="fill: rgb(251, 157, 128);stroke-width: 1;stroke: black;"/></g><text x="495" y="159.5"><tspan dy="14" text-anchor="middle" x="495">DestinationUnreachable</tspan></text></g><g id="1222872673472:4326" xc="720" xlink-href="a" yc="170"><g transform="translate(654, 160)"><path d="M 0 0 L 118 0 L 131 19 L 13 19 z" style="fill: rgb(251, 157, 128);stroke-width: 1;stroke: black;"/></g><text x="720" y="159.5"><tspan dy="14" text-anchor="middle" x="720">AmbulanceFailure</tspan></text></g><g id="1222872673472:4277"><polyline fill="none" points="508,160 521,151 " style="stroke: black;"/></g><g id="1222872673472:4302" xc="463.5" xlink-href="a" yc="230"><g transform="translate(420, 220)"><path d="M 0 0 L 78 0 L 86 19 L 8 19 z" style="fill: rgb(251, 157, 128);stroke-width: 1;stroke: black;"/></g><text x="463.5" y="219.5"><tspan dy="14" text-anchor="middle" x="463.5">TrafficJam</tspan></text></g><g id="1222872673472:4319" xc="574.5" xlink-href="a" yc="230"><g transform="translate(512, 220)"><path d="M 0 0 L 112 0 L 124 19 L 12 19 z" style="fill: rgb(251, 157, 128);stroke-width: 1;stroke: black;"/></g><text x="574.5" y="219.5"><tspan dy="14" text-anchor="middle" x="574.5">PhysicalObstacle</tspan></text></g><g id="1222872673472:4315"><polyline fill="none" points="468,220 471,214 " style="stroke: black;"/></g><g id="1222872673472:4317"><polyline fill="none" points="560,220 545,208 " style="stroke: black;"/></g><g id="1222872673472:4305" xc="342.5" xlink-href="a" yc="210"><g transform="translate(272, 200)"><path d="M 0 0 L 126 0 L 140 19 L 14 19 z" style="fill: rgb(251, 157, 128);stroke-width: 1;stroke: black;"/></g><text x="342.5" y="199.5"><tspan dy="14" text-anchor="middle" x="342.5">DestinationOffroad</tspan></text></g><g id="1222872673472:4304"><polyline fill="none" points="378,200 405,192 " style="stroke: black;"/></g><g id="1222872673472:4301" xc="533" xlink-href="a" yc="341"><g transform="translate(428, 310)"><path d="M 21 0 L 209 0 L 189 61 L 0 61 z" style="fill: rgb(215, 230, 238);stroke-width: 1;stroke: black;"/></g><text x="533" y="309.5"><tspan dy="14" text-anchor="middle" x="533">Achieve</tspan><tspan dy="14" text-anchor="middle" x="533">[AppropriateMedicalCareGivenWh</tspan><tspan dy="14" text-anchor="middle" x="533">enTrafficJamOrPhysicalObstacleOr</tspan><tspan dy="14" text-anchor="middle" x="533">AmbulanceFailure]</tspan></text></g><g id="1222872673472:4300"><polyline fill="none" points="513,310 469,240 " style="stroke: black;marker-end : url(#ArrowResolutionLine); "/></g><g id="1222872673472:4324"><polyline fill="none" points="544,310 570,240 " style="stroke: black;marker-end : url(#ArrowResolutionLine); "/></g><g id="1222872673472:4325" xc="302" xlink-href="a" yc="320"><g transform="translate(221, 310)"><path d="M 81 0 L 161 4 L 161 19 L 0 19 L 0 4 z" style="fill: rgb(196, 181, 218);stroke-width: 1;stroke: black;"/></g><text x="302" y="309.5"><tspan dy="14" text-anchor="middle" x="302">AllDestinationsOnroad</tspan></text></g><g id="1222872673472:4474" xc="309" xlink-href="a" yc="258"><g transform="translate(228, 241)"><path d="M 16 0 L 161 0 L 145 33 L 0 33 z" style="fill: rgb(215, 230, 238);stroke-width: 1;stroke: black;"/></g><text x="309" y="240.5"><tspan dy="14" text-anchor="middle" x="309">Maintain</tspan><tspan dy="14" text-anchor="middle" x="309">[AllDestinationOnroad]</tspan></text></g><g id="1222872673472:4494"><polyline fill="none" points="321,241 335,220 " style="stroke: black;marker-end : url(#ArrowResolutionLine); "/></g><g id="1222872673472:4475"><polyline fill="none" points="303,310 303,307 " style="stroke: black;"/></g><g id="1222872673472:4490" xc="740" xlink-href="a" yc="389"><g transform="translate(635, 358)"><path d="M 21 0 L 209 0 L 189 61 L 0 61 z" style="fill: rgb(215, 230, 238);stroke-width: 1;stroke: black;"/></g><text x="740" y="357.5"><tspan dy="14" text-anchor="middle" x="740">Achieve</tspan><tspan dy="14" text-anchor="middle" x="740">[AppropriateMedicalCareGivenByO</tspan><tspan dy="14" text-anchor="middle" x="740">therAmbulanceWhenAmbulanceDe</tspan><tspan dy="14" text-anchor="middle" x="740">mobilized]</tspan></text></g><g id="1222872673472:4488"><polyline fill="none" points="644,390 530,393 " style="stroke: black;"/></g><g id="1222872673472:4554"><polyline fill="none" points="567,310 709,180 " style="stroke: black;marker-end : url(#ArrowResolutionLine); "/></g><g id="1222872673472:4557" xc="307" xlink-href="a" yc="399"><g transform="translate(203, 368)"><path d="M 20 0 L 207 0 L 187 61 L 0 61 z" style="fill: rgb(215, 230, 238);stroke-width: 1;stroke: black;"/></g><text x="307" y="367.5"><tspan dy="14" text-anchor="middle" x="307">Achieve</tspan><tspan dy="14" text-anchor="middle" x="307">[AmbulanceProblemKnowWhenTr</tspan><tspan dy="14" text-anchor="middle" x="307">afficJamOrOrPhysicalObstacleOrP</tspan><tspan dy="14" text-anchor="middle" x="307">hysicalFailure]</tspan></text></g><g id="1222872673472:4560" xc="514.5" xlink-href="a" yc="442"><g transform="translate(412, 418)"><path d="M 20 0 L 204 0 L 184 47 L 0 47 z" style="fill: rgb(215, 230, 238);stroke-width: 1;stroke: black;"/></g><text x="514.5" y="417.5"><tspan dy="14" text-anchor="middle" x="514.5">Achieve</tspan><tspan dy="14" text-anchor="middle" x="514.5">[AmbulanceDemobilizedWhenAm</tspan><tspan dy="14" text-anchor="middle" x="514.5">bulanceProblemKnown]</tspan></text></g><g id="1222872673472:4559" xc="102.5" xlink-href="a" yc="462"><g transform="translate(0, 438)"><path d="M 20 0 L 204 0 L 184 47 L 0 47 z" style="fill: rgb(246, 222, 63);stroke-width: 3;stroke: black;"/></g><text x="102.5" y="437.5"><tspan dy="14" text-anchor="middle" x="102.5">Achieve</tspan><tspan dy="14" text-anchor="middle" x="102.5">[AmbulanceProblemSentWhenAm</tspan><tspan dy="14" text-anchor="middle" x="102.5">bulanceProblem]</tspan></text></g><g id="1222872673472:4615"><polyline fill="none" points="194,460 232,460 " style="stroke: black;"/></g><g id="1222872673472:4594" xc="129.5" xlink-href="a" yc="532"><g transform="translate(29, 508)"><path d="M 20 0 L 200 0 L 180 47 L 0 47 z" style="fill: rgb(215, 230, 238);stroke-width: 3;stroke: black;"/></g><text x="129.5" y="507.5"><tspan dy="14" text-anchor="middle" x="129.5">Achieve</tspan><tspan dy="14" text-anchor="middle" x="129.5">[AmbulanceProblemRecordedWh</tspan><tspan dy="14" text-anchor="middle" x="129.5">enSent]</tspan></text></g><g id="1222872673472:4600"><polyline fill="none" points="166,508 233,463 " style="stroke: black;"/></g><g id="1222872673472:4642" xc="770.5" xlink-href="a" yc="522"><g transform="translate(668, 498)"><path d="M 20 0 L 204 0 L 184 47 L 0 47 z" style="fill: rgb(215, 230, 238);stroke-width: 3;stroke: black;"/></g><text x="770.5" y="497.5"><tspan dy="14" text-anchor="middle" x="770.5">Achieve</tspan><tspan dy="14" text-anchor="middle" x="770.5">[AmbulanceDemobilizedWhenDe</tspan><tspan dy="14" text-anchor="middle" x="770.5">mobilizationNotified]</tspan></text></g><g id="1222872673472:4639" xc="562" xlink-href="a" yc="522"><g transform="translate(457, 498)"><path d="M 21 0 L 209 0 L 189 47 L 0 47 z" style="fill: rgb(215, 230, 238);stroke-width: 3;stroke: black;"/></g><text x="562" y="497.5"><tspan dy="14" text-anchor="middle" x="562">Achieve</tspan><tspan dy="14" text-anchor="middle" x="562">[DemobilizationNotifiedWhenProbl</tspan><tspan dy="14" text-anchor="middle" x="562">emKnown]</tspan></text></g><g id="1222872673472:4635"><polyline fill="none" points="686,504 607,488 " style="stroke: black;"/></g><g id="1222872673472:4636"><polyline fill="none" points="588,498 594,492 " style="stroke: black;"/></g><g id="1222872673472:4658"><polyline fill="none" points="702,160 682,148 " style="stroke: black;"/></g><g id="1222872673472:4900"><polyline fill="none" points="401,396 516,393 " style="stroke: black;"/></g><g id="1222872673472:4909"><polyline fill="none" points="518,418 522,400 " style="stroke: black;"/></g><g id="1222872673472:4915" xc="805.5" xlink-href="a" yc="292"><g transform="translate(700, 268)"><path d="M 21 0 L 210 0 L 189 47 L 0 47 z" style="fill: rgb(215, 230, 238);stroke-width: 1;stroke: black;"/></g><text x="805.5" y="274.5"><tspan dy="14" text-anchor="middle" x="805.5">Maintain</tspan><tspan dy="14" text-anchor="middle" x="805.5">[CityMapRepresentationAccuracy]</tspan></text></g><g id="1222872673472:4917" xc="805.5" xlink-href="a" yc="233"><g transform="translate(710, 216)"><path d="M 19 0 L 190 0 L 171 33 L 0 33 z" style="fill: rgb(215, 230, 238);stroke-width: 1;stroke: black;"/></g><text x="805.5" y="215.5"><tspan dy="14" text-anchor="middle" x="805.5">Maintain</tspan><tspan dy="14" text-anchor="middle" x="805.5">[AmbulanceInWorkingState]</tspan></text></g><g id="1222872673472:6272" xc="342" xlink-href="a" yc="517"><g transform="translate(238, 500)"><path d="M 104 0 L 207 6 L 207 33 L 0 33 L 0 6 z" style="fill: rgb(196, 181, 218);stroke-width: 1;stroke: black;"/></g><text x="342" y="499.5"><tspan dy="14" text-anchor="middle" x="342">AmbulanceProblemKnownWhenA</tspan><tspan dy="14" text-anchor="middle" x="342">mbulanceProblemRecorded</tspan></text></g><g id="1222872673472:6269"><polyline fill="none" points="311,500 246,463 " style="stroke: black;"/></g><g id="1222872673472:4275"><polyline fill="none" points="533,143 558,126 " style="stroke: black;marker-end : url(#ArrowO_RefinementDefaultAndOrRepresentation); "/><ellipse cx="527.5" cy="147.5" rx="7.5" ry="7.5" style="stroke: black; fill: rgb(251, 157, 128); stroke-width: 1"/></g><g id="1222872673472:4297"><polyline fill="none" points="477,201 489,180 " style="stroke: black;marker-end : url(#ArrowO_RefinementDefaultAndOrRepresentation); "/><ellipse cx="474.5" cy="208.5" rx="7.5" ry="7.5" style="stroke: black; fill: rgb(251, 157, 128); stroke-width: 1"/></g><g id="1222872673472:4327"><polyline fill="none" points="533,200 507,180 " style="stroke: black;marker-end : url(#ArrowO_RefinementDefaultAndOrRepresentation); "/><ellipse cx="539.5" cy="204.5" rx="7.5" ry="7.5" style="stroke: black; fill: rgb(251, 157, 128); stroke-width: 1"/></g><g id="1222872673472:4306"><polyline fill="none" points="419,190 455,180 " style="stroke: black;marker-end : url(#ArrowO_RefinementDefaultAndOrRepresentation); "/><ellipse cx="412.5" cy="191.5" rx="7.5" ry="7.5" style="stroke: black; fill: rgb(251, 157, 128); stroke-width: 1"/></g><g id="1222872673472:4473"><polyline fill="none" points="304,293 307,275 " style="stroke: black;marker-end : url(#ArrowRefinementDefaultAndOrRepresentation); "/><ellipse cx="304.5" cy="300.5" rx="7.5" ry="7.5" style="stroke: black; fill: rgb(246, 222, 63); stroke-width: 1"/></g><g id="1222872673472:4487"><polyline fill="none" points="524,386 527,372 " style="stroke: black;marker-end : url(#ArrowRefinementDefaultAndOrRepresentation); "/><ellipse cx="523.5" cy="393.5" rx="7.5" ry="7.5" style="stroke: black; fill: rgb(246, 222, 63); stroke-width: 1"/></g><g id="1222872673472:4613"><polyline fill="none" points="244,456 272,430 " style="stroke: black;marker-end : url(#ArrowRefinementDefaultAndOrRepresentation); "/><ellipse cx="239.5" cy="460.5" rx="7.5" ry="7.5" style="stroke: black; fill: rgb(246, 222, 63); stroke-width: 1"/></g><g id="1222872673472:4634"><polyline fill="none" points="593,484 560,466 " style="stroke: black;marker-end : url(#ArrowRefinementDefaultAndOrRepresentation); "/><ellipse cx="600.5" cy="487.5" rx="7.5" ry="7.5" style="stroke: black; fill: rgb(246, 222, 63); stroke-width: 1"/></g><g id="1222872673472:4657"><polyline fill="none" points="668,142 639,126 " style="stroke: black;marker-end : url(#ArrowO_RefinementDefaultAndOrRepresentation); "/><ellipse cx="675.5" cy="145.5" rx="7.5" ry="7.5" style="stroke: black; fill: rgb(251, 157, 128); stroke-width: 1"/></g></g></svg>